<svg version="1.1" xmlns="http://www.w3.org/2000/svg" xmlns:xlink="http://www.w3.org/1999/xlink" width="1000" height="1000" viewBox="0 0 1000 1000" enable-background="new 0 0 1000 1000" xml:space="preserve"><g transform="translate(0,0) scale(1.0,1.0)" width="1000" height="1000"><svg width="1000" height="1000" viewBox="0 0 740 740" enable-background="new 0 0 1000 1000" xml:space="preserve"><rect x="0" y="0" width="740" height="740" fill="rgb(255,255,255)" fill-opacity="1.0" /><rect x="280" y="80" width="20" height="20" fill="rgb(0,0,0)" fill-opacity="1.0" shape-rendering="crispEdges" /><rect x="300" y="80" width="20" height="20" fill="rgb(0,0,0)" fill-opacity="1.0" shape-rendering="crispEdges" /><rect x="340" y="80" width="20" height="20" fill="rgb(0,0,0)" fill-opacity="1.0" shape-rendering="crispEdges" /><rect x="400" y="80" width="20" height="20" fill="rgb(0,0,0)" fill-opacity="1.0" shape-rendering="crispEdges" /><rect x="440" y="80" width="20" height="20" fill="rgb(0,0,0)" fill-opacity="1.0" shape-rendering="crispEdges" /><rect x="460" y="80" width="20" height="20" fill="rgb(0,0,0)" fill-opacity="1.0" shape-rendering="crispEdges" /><rect x="480" y="80" width="20" height="20" fill="rgb(0,0,0)" fill-opacity="1.0" shape-rendering="crispEdges" /><rect x="280" y="100" width="20" height="20" fill="rgb(0,0,0)" fill-opacity="1.0" shape-rendering="crispEdges" /><rect x="340" y="100" width="20" height="20" fill="rgb(0,0,0)" fill-opacity="1.0" shape-rendering="crispEdges" /><rect x="360" y="100" width="20" height="20" fill="rgb(0,0,0)" fill-opacity="1.0" shape-rendering="crispEdges" /><rect x="400" y="100" width="20" height="20" fill="rgb(0,0,0)" fill-opacity="1.0" shape-rendering="crispEdges" /><rect x="260" y="120" width="20" height="20" fill="rgb(0,0,0)" fill-opacity="1.0" shape-rendering="crispEdges" /><rect x="300" y="120" width="20" height="20" fill="rgb(0,0,0)" fill-opacity="1.0" shape-rendering="crispEdges" /><rect x="340" y="120" width="20" height="20" fill="rgb(0,0,0)" fill-opacity="1.0" shape-rendering="crispEdges" /><rect x="400" y="120" width="20" height="20" fill="rgb(0,0,0)" fill-opacity="1.0" shape-rendering="crispEdges" /><rect x="420" y="120" width="20" height="20" fill="rgb(0,0,0)" fill-opacity="1.0" shape-rendering="crispEdges" /><rect x="460" y="120" width="20" height="20" fill="rgb(0,0,0)" fill-opacity="1.0" shape-rendering="crispEdges" /><rect x="260" y="140" width="20" height="20" fill="rgb(0,0,0)" fill-opacity="1.0" shape-rendering="crispEdges" /><rect x="280" y="140" width="20" height="20" fill="rgb(0,0,0)" fill-opacity="1.0" shape-rendering="crispEdges" /><rect x="360" y="140" width="20" height="20" fill="rgb(0,0,0)" fill-opacity="1.0" shape-rendering="crispEdges" /><rect x="420" y="140" width="20" height="20" fill="rgb(0,0,0)" fill-opacity="1.0" shape-rendering="crispEdges" /><rect x="460" y="140" width="20" height="20" fill="rgb(0,0,0)" fill-opacity="1.0" shape-rendering="crispEdges" /><rect x="480" y="140" width="20" height="20" fill="rgb(0,0,0)" fill-opacity="1.0" shape-rendering="crispEdges" /><rect x="320" y="160" width="20" height="20" fill="rgb(0,0,0)" fill-opacity="1.0" shape-rendering="crispEdges" /><rect x="340" y="160" width="20" height="20" fill="rgb(0,0,0)" fill-opacity="1.0" shape-rendering="crispEdges" /><rect x="380" y="160" width="20" height="20" fill="rgb(0,0,0)" fill-opacity="1.0" shape-rendering="crispEdges" /><rect x="420" y="160" width="20" height="20" fill="rgb(0,0,0)" fill-opacity="1.0" shape-rendering="crispEdges" /><rect x="440" y="160" width="20" height="20" fill="rgb(0,0,0)" fill-opacity="1.0" shape-rendering="crispEdges" /><rect x="240" y="180" width="20" height="20" fill="rgb(0,0,0)" fill-opacity="1.0" shape-rendering="crispEdges" /><rect x="260" y="180" width="20" height="20" fill="rgb(0,0,0)" fill-opacity="1.0" shape-rendering="crispEdges" /><rect x="300" y="180" width="20" height="20" fill="rgb(0,0,0)" fill-opacity="1.0" shape-rendering="crispEdges" /><rect x="320" y="180" width="20" height="20" fill="rgb(0,0,0)" fill-opacity="1.0" shape-rendering="crispEdges" /><rect x="340" y="180" width="20" height="20" fill="rgb(0,0,0)" fill-opacity="1.0" shape-rendering="crispEdges" /><rect x="360" y="180" width="20" height="20" fill="rgb(0,0,0)" fill-opacity="1.0" shape-rendering="crispEdges" /><rect x="380" y="180" width="20" height="20" fill="rgb(0,0,0)" fill-opacity="1.0" shape-rendering="crispEdges" /><rect x="400" y="180" width="20" height="20" fill="rgb(0,0,0)" fill-opacity="1.0" shape-rendering="crispEdges" /><rect x="440" y="180" width="20" height="20" fill="rgb(0,0,0)" fill-opacity="1.0" shape-rendering="crispEdges" /><rect x="480" y="180" width="20" height="20" fill="rgb(0,0,0)" fill-opacity="1.0" shape-rendering="crispEdges" /><rect x="240" y="200" width="20" height="20" fill="rgb(0,0,0)" fill-opacity="1.0" shape-rendering="crispEdges" /><rect x="280" y="200" width="20" height="20" fill="rgb(0,0,0)" fill-opacity="1.0" shape-rendering="crispEdges" /><rect x="320" y="200" width="20" height="20" fill="rgb(0,0,0)" fill-opacity="1.0" shape-rendering="crispEdges" /><rect x="360" y="200" width="20" height="20" fill="rgb(0,0,0)" fill-opacity="1.0" shape-rendering="crispEdges" /><rect x="400" y="200" width="20" height="20" fill="rgb(0,0,0)" fill-opacity="1.0" shape-rendering="crispEdges" /><rect x="440" y="200" width="20" height="20" fill="rgb(0,0,0)" fill-opacity="1.0" shape-rendering="crispEdges" /><rect x="480" y="200" width="20" height="20" fill="rgb(0,0,0)" fill-opacity="1.0" shape-rendering="crispEdges" /><rect x="280" y="220" width="20" height="20" fill="rgb(0,0,0)" fill-opacity="1.0" shape-rendering="crispEdges" /><rect x="300" y="220" width="20" height="20" fill="rgb(0,0,0)" fill-opacity="1.0" shape-rendering="crispEdges" /><rect x="340" y="220" width="20" height="20" fill="rgb(0,0,0)" fill-opacity="1.0" shape-rendering="crispEdges" /><rect x="360" y="220" width="20" height="20" fill="rgb(0,0,0)" fill-opacity="1.0" shape-rendering="crispEdges" /><rect x="380" y="220" width="20" height="20" fill="rgb(0,0,0)" fill-opacity="1.0" shape-rendering="crispEdges" /><rect x="400" y="220" width="20" height="20" fill="rgb(0,0,0)" fill-opacity="1.0" shape-rendering="crispEdges" /><rect x="420" y="220" width="20" height="20" fill="rgb(0,0,0)" fill-opacity="1.0" shape-rendering="crispEdges" /><rect x="460" y="220" width="20" height="20" fill="rgb(0,0,0)" fill-opacity="1.0" shape-rendering="crispEdges" /><rect x="80" y="240" width="20" height="20" fill="rgb(0,0,0)" fill-opacity="1.0" shape-rendering="crispEdges" /><rect x="140" y="240" width="20" height="20" fill="rgb(0,0,0)" fill-opacity="1.0" shape-rendering="crispEdges" /><rect x="180" y="240" width="20" height="20" fill="rgb(0,0,0)" fill-opacity="1.0" shape-rendering="crispEdges" /><rect x="200" y="240" width="20" height="20" fill="rgb(0,0,0)" fill-opacity="1.0" shape-rendering="crispEdges" /><rect x="240" y="240" width="20" height="20" fill="rgb(0,0,0)" fill-opacity="1.0" shape-rendering="crispEdges" /><rect x="260" y="240" width="20" height="20" fill="rgb(0,0,0)" fill-opacity="1.0" shape-rendering="crispEdges" /><rect x="300" y="240" width="20" height="20" fill="rgb(0,0,0)" fill-opacity="1.0" shape-rendering="crispEdges" /><rect x="340" y="240" width="20" height="20" fill="rgb(0,0,0)" fill-opacity="1.0" shape-rendering="crispEdges" /><rect x="360" y="240" width="20" height="20" fill="rgb(0,0,0)" fill-opacity="1.0" shape-rendering="crispEdges" /><rect x="400" y="240" width="20" height="20" fill="rgb(0,0,0)" fill-opacity="1.0" shape-rendering="crispEdges" /><rect x="420" y="240" width="20" height="20" fill="rgb(0,0,0)" fill-opacity="1.0" shape-rendering="crispEdges" /><rect x="440" y="240" width="20" height="20" fill="rgb(0,0,0)" fill-opacity="1.0" shape-rendering="crispEdges" /><rect x="460" y="240" width="20" height="20" fill="rgb(0,0,0)" fill-opacity="1.0" shape-rendering="crispEdges" /><rect x="500" y="240" width="20" height="20" fill="rgb(0,0,0)" fill-opacity="1.0" shape-rendering="crispEdges" /><rect x="540" y="240" width="20" height="20" fill="rgb(0,0,0)" fill-opacity="1.0" shape-rendering="crispEdges" /><rect x="160" y="260" width="20" height="20" fill="rgb(0,0,0)" fill-opacity="1.0" shape-rendering="crispEdges" /><rect x="240" y="260" width="20" height="20" fill="rgb(0,0,0)" fill-opacity="1.0" shape-rendering="crispEdges" /><rect x="300" y="260" width="20" height="20" fill="rgb(0,0,0)" fill-opacity="1.0" shape-rendering="crispEdges" /><rect x="320" y="260" width="20" height="20" fill="rgb(0,0,0)" fill-opacity="1.0" shape-rendering="crispEdges" /><rect x="340" y="260" width="20" height="20" fill="rgb(0,0,0)" fill-opacity="1.0" shape-rendering="crispEdges" /><rect x="400" y="260" width="20" height="20" fill="rgb(0,0,0)" fill-opacity="1.0" shape-rendering="crispEdges" /><rect x="540" y="260" width="20" height="20" fill="rgb(0,0,0)" fill-opacity="1.0" shape-rendering="crispEdges" /><rect x="640" y="260" width="20" height="20" fill="rgb(0,0,0)" fill-opacity="1.0" shape-rendering="crispEdges" /><rect x="100" y="280" width="20" height="20" fill="rgb(0,0,0)" fill-opacity="1.0" shape-rendering="crispEdges" /><rect x="120" y="280" width="20" height="20" fill="rgb(0,0,0)" fill-opacity="1.0" shape-rendering="crispEdges" /><rect x="200" y="280" width="20" height="20" fill="rgb(0,0,0)" fill-opacity="1.0" shape-rendering="crispEdges" /><rect x="260" y="280" width="20" height="20" fill="rgb(0,0,0)" fill-opacity="1.0" shape-rendering="crispEdges" /><rect x="280" y="280" width="20" height="20" fill="rgb(0,0,0)" fill-opacity="1.0" shape-rendering="crispEdges" /><rect x="340" y="280" width="20" height="20" fill="rgb(0,0,0)" fill-opacity="1.0" shape-rendering="crispEdges" /><rect x="360" y="280" width="20" height="20" fill="rgb(0,0,0)" fill-opacity="1.0" shape-rendering="crispEdges" /><rect x="380" y="280" width="20" height="20" fill="rgb(0,0,0)" fill-opacity="1.0" shape-rendering="crispEdges" /><rect x="400" y="280" width="20" height="20" fill="rgb(0,0,0)" fill-opacity="1.0" shape-rendering="crispEdges" /><rect x="420" y="280" width="20" height="20" fill="rgb(0,0,0)" fill-opacity="1.0" shape-rendering="crispEdges" /><rect x="440" y="280" width="20" height="20" fill="rgb(0,0,0)" fill-opacity="1.0" shape-rendering="crispEdges" /><rect x="560" y="280" width="20" height="20" fill="rgb(0,0,0)" fill-opacity="1.0" shape-rendering="crispEdges" /><rect x="580" y="280" width="20" height="20" fill="rgb(0,0,0)" fill-opacity="1.0" shape-rendering="crispEdges" /><rect x="600" y="280" width="20" height="20" fill="rgb(0,0,0)" fill-opacity="1.0" shape-rendering="crispEdges" /><rect x="640" y="280" width="20" height="20" fill="rgb(0,0,0)" fill-opacity="1.0" shape-rendering="crispEdges" /><rect x="80" y="300" width="20" height="20" fill="rgb(0,0,0)" fill-opacity="1.0" shape-rendering="crispEdges" /><rect x="160" y="300" width="20" height="20" fill="rgb(0,0,0)" fill-opacity="1.0" shape-rendering="crispEdges" /><rect x="220" y="300" width="20" height="20" fill="rgb(0,0,0)" fill-opacity="1.0" shape-rendering="crispEdges" /><rect x="260" y="300" width="20" height="20" fill="rgb(0,0,0)" fill-opacity="1.0" shape-rendering="crispEdges" /><rect x="280" y="300" width="20" height="20" fill="rgb(0,0,0)" fill-opacity="1.0" shape-rendering="crispEdges" /><rect x="300" y="300" width="20" height="20" fill="rgb(0,0,0)" fill-opacity="1.0" shape-rendering="crispEdges" /><rect x="320" y="300" width="20" height="20" fill="rgb(0,0,0)" fill-opacity="1.0" shape-rendering="crispEdges" /><rect x="340" y="300" width="20" height="20" fill="rgb(0,0,0)" fill-opacity="1.0" shape-rendering="crispEdges" /><rect x="400" y="300" width="20" height="20" fill="rgb(0,0,0)" fill-opacity="1.0" shape-rendering="crispEdges" /><rect x="420" y="300" width="20" height="20" fill="rgb(0,0,0)" fill-opacity="1.0" shape-rendering="crispEdges" /><rect x="460" y="300" width="20" height="20" fill="rgb(0,0,0)" fill-opacity="1.0" shape-rendering="crispEdges" /><rect x="480" y="300" width="20" height="20" fill="rgb(0,0,0)" fill-opacity="1.0" shape-rendering="crispEdges" /><rect x="500" y="300" width="20" height="20" fill="rgb(0,0,0)" fill-opacity="1.0" shape-rendering="crispEdges" /><rect x="520" y="300" width="20" height="20" fill="rgb(0,0,0)" fill-opacity="1.0" shape-rendering="crispEdges" /><rect x="540" y="300" width="20" height="20" fill="rgb(0,0,0)" fill-opacity="1.0" shape-rendering="crispEdges" /><rect x="560" y="300" width="20" height="20" fill="rgb(0,0,0)" fill-opacity="1.0" shape-rendering="crispEdges" /><rect x="580" y="300" width="20" height="20" fill="rgb(0,0,0)" fill-opacity="1.0" shape-rendering="crispEdges" /><rect x="620" y="300" width="20" height="20" fill="rgb(0,0,0)" fill-opacity="1.0" shape-rendering="crispEdges" /><rect x="120" y="320" width="20" height="20" fill="rgb(0,0,0)" fill-opacity="1.0" shape-rendering="crispEdges" /><rect x="180" y="320" width="20" height="20" fill="rgb(0,0,0)" fill-opacity="1.0" shape-rendering="crispEdges" /><rect x="200" y="320" width="20" height="20" fill="rgb(0,0,0)" fill-opacity="1.0" shape-rendering="crispEdges" /><rect x="220" y="320" width="20" height="20" fill="rgb(0,0,0)" fill-opacity="1.0" shape-rendering="crispEdges" /><rect x="260" y="320" width="20" height="20" fill="rgb(0,0,0)" fill-opacity="1.0" shape-rendering="crispEdges" /><rect x="280" y="320" width="20" height="20" fill="rgb(0,0,0)" fill-opacity="1.0" shape-rendering="crispEdges" /><rect x="300" y="320" width="20" height="20" fill="rgb(0,0,0)" fill-opacity="1.0" shape-rendering="crispEdges" /><rect x="320" y="320" width="20" height="20" fill="rgb(0,0,0)" fill-opacity="1.0" shape-rendering="crispEdges" /><rect x="360" y="320" width="20" height="20" fill="rgb(0,0,0)" fill-opacity="1.0" shape-rendering="crispEdges" /><rect x="380" y="320" width="20" height="20" fill="rgb(0,0,0)" fill-opacity="1.0" shape-rendering="crispEdges" /><rect x="440" y="320" width="20" height="20" fill="rgb(0,0,0)" fill-opacity="1.0" shape-rendering="crispEdges" /><rect x="480" y="320" width="20" height="20" fill="rgb(0,0,0)" fill-opacity="1.0" shape-rendering="crispEdges" /><rect x="500" y="320" width="20" height="20" fill="rgb(0,0,0)" fill-opacity="1.0" shape-rendering="crispEdges" /><rect x="520" y="320" width="20" height="20" fill="rgb(0,0,0)" fill-opacity="1.0" shape-rendering="crispEdges" /><rect x="540" y="320" width="20" height="20" fill="rgb(0,0,0)" fill-opacity="1.0" shape-rendering="crispEdges" /><rect x="640" y="320" width="20" height="20" fill="rgb(0,0,0)" fill-opacity="1.0" shape-rendering="crispEdges" /><rect x="80" y="340" width="20" height="20" fill="rgb(0,0,0)" fill-opacity="1.0" shape-rendering="crispEdges" /><rect x="120" y="340" width="20" height="20" fill="rgb(0,0,0)" fill-opacity="1.0" shape-rendering="crispEdges" /><rect x="220" y="340" width="20" height="20" fill="rgb(0,0,0)" fill-opacity="1.0" shape-rendering="crispEdges" /><rect x="260" y="340" width="20" height="20" fill="rgb(0,0,0)" fill-opacity="1.0" shape-rendering="crispEdges" /><rect x="360" y="340" width="20" height="20" fill="rgb(0,0,0)" fill-opacity="1.0" shape-rendering="crispEdges" /><rect x="380" y="340" width="20" height="20" fill="rgb(0,0,0)" fill-opacity="1.0" shape-rendering="crispEdges" /><rect x="400" y="340" width="20" height="20" fill="rgb(0,0,0)" fill-opacity="1.0" shape-rendering="crispEdges" /><rect x="420" y="340" width="20" height="20" fill="rgb(0,0,0)" fill-opacity="1.0" shape-rendering="crispEdges" /><rect x="460" y="340" width="20" height="20" fill="rgb(0,0,0)" fill-opacity="1.0" shape-rendering="crispEdges" /><rect x="500" y="340" width="20" height="20" fill="rgb(0,0,0)" fill-opacity="1.0" shape-rendering="crispEdges" /><rect x="520" y="340" width="20" height="20" fill="rgb(0,0,0)" fill-opacity="1.0" shape-rendering="crispEdges" /><rect x="540" y="340" width="20" height="20" fill="rgb(0,0,0)" fill-opacity="1.0" shape-rendering="crispEdges" /><rect x="560" y="340" width="20" height="20" fill="rgb(0,0,0)" fill-opacity="1.0" shape-rendering="crispEdges" /><rect x="580" y="340" width="20" height="20" fill="rgb(0,0,0)" fill-opacity="1.0" shape-rendering="crispEdges" /><rect x="620" y="340" width="20" height="20" fill="rgb(0,0,0)" fill-opacity="1.0" shape-rendering="crispEdges" /><rect x="80" y="360" width="20" height="20" fill="rgb(0,0,0)" fill-opacity="1.0" shape-rendering="crispEdges" /><rect x="100" y="360" width="20" height="20" fill="rgb(0,0,0)" fill-opacity="1.0" shape-rendering="crispEdges" /><rect x="140" y="360" width="20" height="20" fill="rgb(0,0,0)" fill-opacity="1.0" shape-rendering="crispEdges" /><rect x="180" y="360" width="20" height="20" fill="rgb(0,0,0)" fill-opacity="1.0" shape-rendering="crispEdges" /><rect x="200" y="360" width="20" height="20" fill="rgb(0,0,0)" fill-opacity="1.0" shape-rendering="crispEdges" /><rect x="220" y="360" width="20" height="20" fill="rgb(0,0,0)" fill-opacity="1.0" shape-rendering="crispEdges" /><rect x="240" y="360" width="20" height="20" fill="rgb(0,0,0)" fill-opacity="1.0" shape-rendering="crispEdges" /><rect x="280" y="360" width="20" height="20" fill="rgb(0,0,0)" fill-opacity="1.0" shape-rendering="crispEdges" /><rect x="300" y="360" width="20" height="20" fill="rgb(0,0,0)" fill-opacity="1.0" shape-rendering="crispEdges" /><rect x="340" y="360" width="20" height="20" fill="rgb(0,0,0)" fill-opacity="1.0" shape-rendering="crispEdges" /><rect x="400" y="360" width="20" height="20" fill="rgb(0,0,0)" fill-opacity="1.0" shape-rendering="crispEdges" /><rect x="420" y="360" width="20" height="20" fill="rgb(0,0,0)" fill-opacity="1.0" shape-rendering="crispEdges" /><rect x="440" y="360" width="20" height="20" fill="rgb(0,0,0)" fill-opacity="1.0" shape-rendering="crispEdges" /><rect x="480" y="360" width="20" height="20" fill="rgb(0,0,0)" fill-opacity="1.0" shape-rendering="crispEdges" /><rect x="500" y="360" width="20" height="20" fill="rgb(0,0,0)" fill-opacity="1.0" shape-rendering="crispEdges" /><rect x="560" y="360" width="20" height="20" fill="rgb(0,0,0)" fill-opacity="1.0" shape-rendering="crispEdges" /><rect x="580" y="360" width="20" height="20" fill="rgb(0,0,0)" fill-opacity="1.0" shape-rendering="crispEdges" /><rect x="620" y="360" width="20" height="20" fill="rgb(0,0,0)" fill-opacity="1.0" shape-rendering="crispEdges" /><rect x="80" y="380" width="20" height="20" fill="rgb(0,0,0)" fill-opacity="1.0" shape-rendering="crispEdges" /><rect x="100" y="380" width="20" height="20" fill="rgb(0,0,0)" fill-opacity="1.0" shape-rendering="crispEdges" /><rect x="120" y="380" width="20" height="20" fill="rgb(0,0,0)" fill-opacity="1.0" shape-rendering="crispEdges" /><rect x="160" y="380" width="20" height="20" fill="rgb(0,0,0)" fill-opacity="1.0" shape-rendering="crispEdges" /><rect x="300" y="380" width="20" height="20" fill="rgb(0,0,0)" fill-opacity="1.0" shape-rendering="crispEdges" /><rect x="340" y="380" width="20" height="20" fill="rgb(0,0,0)" fill-opacity="1.0" shape-rendering="crispEdges" /><rect x="380" y="380" width="20" height="20" fill="rgb(0,0,0)" fill-opacity="1.0" shape-rendering="crispEdges" /><rect x="400" y="380" width="20" height="20" fill="rgb(0,0,0)" fill-opacity="1.0" shape-rendering="crispEdges" /><rect x="440" y="380" width="20" height="20" fill="rgb(0,0,0)" fill-opacity="1.0" shape-rendering="crispEdges" /><rect x="460" y="380" width="20" height="20" fill="rgb(0,0,0)" fill-opacity="1.0" shape-rendering="crispEdges" /><rect x="540" y="380" width="20" height="20" fill="rgb(0,0,0)" fill-opacity="1.0" shape-rendering="crispEdges" /><rect x="560" y="380" width="20" height="20" fill="rgb(0,0,0)" fill-opacity="1.0" shape-rendering="crispEdges" /><rect x="100" y="400" width="20" height="20" fill="rgb(0,0,0)" fill-opacity="1.0" shape-rendering="crispEdges" /><rect x="200" y="400" width="20" height="20" fill="rgb(0,0,0)" fill-opacity="1.0" shape-rendering="crispEdges" /><rect x="260" y="400" width="20" height="20" fill="rgb(0,0,0)" fill-opacity="1.0" shape-rendering="crispEdges" /><rect x="300" y="400" width="20" height="20" fill="rgb(0,0,0)" fill-opacity="1.0" shape-rendering="crispEdges" /><rect x="320" y="400" width="20" height="20" fill="rgb(0,0,0)" fill-opacity="1.0" shape-rendering="crispEdges" /><rect x="340" y="400" width="20" height="20" fill="rgb(0,0,0)" fill-opacity="1.0" shape-rendering="crispEdges" /><rect x="360" y="400" width="20" height="20" fill="rgb(0,0,0)" fill-opacity="1.0" shape-rendering="crispEdges" /><rect x="380" y="400" width="20" height="20" fill="rgb(0,0,0)" fill-opacity="1.0" shape-rendering="crispEdges" /><rect x="420" y="400" width="20" height="20" fill="rgb(0,0,0)" fill-opacity="1.0" shape-rendering="crispEdges" /><rect x="460" y="400" width="20" height="20" fill="rgb(0,0,0)" fill-opacity="1.0" shape-rendering="crispEdges" /><rect x="480" y="400" width="20" height="20" fill="rgb(0,0,0)" fill-opacity="1.0" shape-rendering="crispEdges" /><rect x="500" y="400" width="20" height="20" fill="rgb(0,0,0)" fill-opacity="1.0" shape-rendering="crispEdges" /><rect x="540" y="400" width="20" height="20" fill="rgb(0,0,0)" fill-opacity="1.0" shape-rendering="crispEdges" /><rect x="560" y="400" width="20" height="20" fill="rgb(0,0,0)" fill-opacity="1.0" shape-rendering="crispEdges" /><rect x="120" y="420" width="20" height="20" fill="rgb(0,0,0)" fill-opacity="1.0" shape-rendering="crispEdges" /><rect x="140" y="420" width="20" height="20" fill="rgb(0,0,0)" fill-opacity="1.0" shape-rendering="crispEdges" /><rect x="180" y="420" width="20" height="20" fill="rgb(0,0,0)" fill-opacity="1.0" shape-rendering="crispEdges" /><rect x="240" y="420" width="20" height="20" fill="rgb(0,0,0)" fill-opacity="1.0" shape-rendering="crispEdges" /><rect x="260" y="420" width="20" height="20" fill="rgb(0,0,0)" fill-opacity="1.0" shape-rendering="crispEdges" /><rect x="300" y="420" width="20" height="20" fill="rgb(0,0,0)" fill-opacity="1.0" shape-rendering="crispEdges" /><rect x="360" y="420" width="20" height="20" fill="rgb(0,0,0)" fill-opacity="1.0" shape-rendering="crispEdges" /><rect x="380" y="420" width="20" height="20" fill="rgb(0,0,0)" fill-opacity="1.0" shape-rendering="crispEdges" /><rect x="420" y="420" width="20" height="20" fill="rgb(0,0,0)" fill-opacity="1.0" shape-rendering="crispEdges" /><rect x="480" y="420" width="20" height="20" fill="rgb(0,0,0)" fill-opacity="1.0" shape-rendering="crispEdges" /><rect x="500" y="420" width="20" height="20" fill="rgb(0,0,0)" fill-opacity="1.0" shape-rendering="crispEdges" /><rect x="620" y="420" width="20" height="20" fill="rgb(0,0,0)" fill-opacity="1.0" shape-rendering="crispEdges" /><rect x="640" y="420" width="20" height="20" fill="rgb(0,0,0)" fill-opacity="1.0" shape-rendering="crispEdges" /><rect x="80" y="440" width="20" height="20" fill="rgb(0,0,0)" fill-opacity="1.0" shape-rendering="crispEdges" /><rect x="140" y="440" width="20" height="20" fill="rgb(0,0,0)" fill-opacity="1.0" shape-rendering="crispEdges" /><rect x="200" y="440" width="20" height="20" fill="rgb(0,0,0)" fill-opacity="1.0" shape-rendering="crispEdges" /><rect x="260" y="440" width="20" height="20" fill="rgb(0,0,0)" fill-opacity="1.0" shape-rendering="crispEdges" /><rect x="300" y="440" width="20" height="20" fill="rgb(0,0,0)" fill-opacity="1.0" shape-rendering="crispEdges" /><rect x="320" y="440" width="20" height="20" fill="rgb(0,0,0)" fill-opacity="1.0" shape-rendering="crispEdges" /><rect x="340" y="440" width="20" height="20" fill="rgb(0,0,0)" fill-opacity="1.0" shape-rendering="crispEdges" /><rect x="380" y="440" width="20" height="20" fill="rgb(0,0,0)" fill-opacity="1.0" shape-rendering="crispEdges" /><rect x="420" y="440" width="20" height="20" fill="rgb(0,0,0)" fill-opacity="1.0" shape-rendering="crispEdges" /><rect x="440" y="440" width="20" height="20" fill="rgb(0,0,0)" fill-opacity="1.0" shape-rendering="crispEdges" /><rect x="460" y="440" width="20" height="20" fill="rgb(0,0,0)" fill-opacity="1.0" shape-rendering="crispEdges" /><rect x="480" y="440" width="20" height="20" fill="rgb(0,0,0)" fill-opacity="1.0" shape-rendering="crispEdges" /><rect x="500" y="440" width="20" height="20" fill="rgb(0,0,0)" fill-opacity="1.0" shape-rendering="crispEdges" /><rect x="540" y="440" width="20" height="20" fill="rgb(0,0,0)" fill-opacity="1.0" shape-rendering="crispEdges" /><rect x="580" y="440" width="20" height="20" fill="rgb(0,0,0)" fill-opacity="1.0" shape-rendering="crispEdges" /><rect x="600" y="440" width="20" height="20" fill="rgb(0,0,0)" fill-opacity="1.0" shape-rendering="crispEdges" /><rect x="120" y="460" width="20" height="20" fill="rgb(0,0,0)" fill-opacity="1.0" shape-rendering="crispEdges" /><rect x="180" y="460" width="20" height="20" fill="rgb(0,0,0)" fill-opacity="1.0" shape-rendering="crispEdges" /><rect x="220" y="460" width="20" height="20" fill="rgb(0,0,0)" fill-opacity="1.0" shape-rendering="crispEdges" /><rect x="240" y="460" width="20" height="20" fill="rgb(0,0,0)" fill-opacity="1.0" shape-rendering="crispEdges" /><rect x="260" y="460" width="20" height="20" fill="rgb(0,0,0)" fill-opacity="1.0" shape-rendering="crispEdges" /><rect x="320" y="460" width="20" height="20" fill="rgb(0,0,0)" fill-opacity="1.0" shape-rendering="crispEdges" /><rect x="340" y="460" width="20" height="20" fill="rgb(0,0,0)" fill-opacity="1.0" shape-rendering="crispEdges" /><rect x="380" y="460" width="20" height="20" fill="rgb(0,0,0)" fill-opacity="1.0" shape-rendering="crispEdges" /><rect x="460" y="460" width="20" height="20" fill="rgb(0,0,0)" fill-opacity="1.0" shape-rendering="crispEdges" /><rect x="480" y="460" width="20" height="20" fill="rgb(0,0,0)" fill-opacity="1.0" shape-rendering="crispEdges" /><rect x="520" y="460" width="20" height="20" fill="rgb(0,0,0)" fill-opacity="1.0" shape-rendering="crispEdges" /><rect x="540" y="460" width="20" height="20" fill="rgb(0,0,0)" fill-opacity="1.0" shape-rendering="crispEdges" /><rect x="600" y="460" width="20" height="20" fill="rgb(0,0,0)" fill-opacity="1.0" shape-rendering="crispEdges" /><rect x="620" y="460" width="20" height="20" fill="rgb(0,0,0)" fill-opacity="1.0" shape-rendering="crispEdges" /><rect x="80" y="480" width="20" height="20" fill="rgb(0,0,0)" fill-opacity="1.0" shape-rendering="crispEdges" /><rect x="120" y="480" width="20" height="20" fill="rgb(0,0,0)" fill-opacity="1.0" shape-rendering="crispEdges" /><rect x="140" y="480" width="20" height="20" fill="rgb(0,0,0)" fill-opacity="1.0" shape-rendering="crispEdges" /><rect x="160" y="480" width="20" height="20" fill="rgb(0,0,0)" fill-opacity="1.0" shape-rendering="crispEdges" /><rect x="200" y="480" width="20" height="20" fill="rgb(0,0,0)" fill-opacity="1.0" shape-rendering="crispEdges" /><rect x="220" y="480" width="20" height="20" fill="rgb(0,0,0)" fill-opacity="1.0" shape-rendering="crispEdges" /><rect x="240" y="480" width="20" height="20" fill="rgb(0,0,0)" fill-opacity="1.0" shape-rendering="crispEdges" /><rect x="300" y="480" width="20" height="20" fill="rgb(0,0,0)" fill-opacity="1.0" shape-rendering="crispEdges" /><rect x="320" y="480" width="20" height="20" fill="rgb(0,0,0)" fill-opacity="1.0" shape-rendering="crispEdges" /><rect x="360" y="480" width="20" height="20" fill="rgb(0,0,0)" fill-opacity="1.0" shape-rendering="crispEdges" /><rect x="400" y="480" width="20" height="20" fill="rgb(0,0,0)" fill-opacity="1.0" shape-rendering="crispEdges" /><rect x="420" y="480" width="20" height="20" fill="rgb(0,0,0)" fill-opacity="1.0" shape-rendering="crispEdges" /><rect x="440" y="480" width="20" height="20" fill="rgb(0,0,0)" fill-opacity="1.0" shape-rendering="crispEdges" /><rect x="460" y="480" width="20" height="20" fill="rgb(0,0,0)" fill-opacity="1.0" shape-rendering="crispEdges" /><rect x="480" y="480" width="20" height="20" fill="rgb(0,0,0)" fill-opacity="1.0" shape-rendering="crispEdges" /><rect x="500" y="480" width="20" height="20" fill="rgb(0,0,0)" fill-opacity="1.0" shape-rendering="crispEdges" /><rect x="520" y="480" width="20" height="20" fill="rgb(0,0,0)" fill-opacity="1.0" shape-rendering="crispEdges" /><rect x="540" y="480" width="20" height="20" fill="rgb(0,0,0)" fill-opacity="1.0" shape-rendering="crispEdges" /><rect x="560" y="480" width="20" height="20" fill="rgb(0,0,0)" fill-opacity="1.0" shape-rendering="crispEdges" /><rect x="640" y="480" width="20" height="20" fill="rgb(0,0,0)" fill-opacity="1.0" shape-rendering="crispEdges" /><rect x="240" y="500" width="20" height="20" fill="rgb(0,0,0)" fill-opacity="1.0" shape-rendering="crispEdges" /><rect x="280" y="500" width="20" height="20" fill="rgb(0,0,0)" fill-opacity="1.0" shape-rendering="crispEdges" /><rect x="300" y="500" width="20" height="20" fill="rgb(0,0,0)" fill-opacity="1.0" shape-rendering="crispEdges" /><rect x="340" y="500" width="20" height="20" fill="rgb(0,0,0)" fill-opacity="1.0" shape-rendering="crispEdges" /><rect x="380" y="500" width="20" height="20" fill="rgb(0,0,0)" fill-opacity="1.0" shape-rendering="crispEdges" /><rect x="440" y="500" width="20" height="20" fill="rgb(0,0,0)" fill-opacity="1.0" shape-rendering="crispEdges" /><rect x="460" y="500" width="20" height="20" fill="rgb(0,0,0)" fill-opacity="1.0" shape-rendering="crispEdges" /><rect x="480" y="500" width="20" height="20" fill="rgb(0,0,0)" fill-opacity="1.0" shape-rendering="crispEdges" /><rect x="560" y="500" width="20" height="20" fill="rgb(0,0,0)" fill-opacity="1.0" shape-rendering="crispEdges" /><rect x="580" y="500" width="20" height="20" fill="rgb(0,0,0)" fill-opacity="1.0" shape-rendering="crispEdges" /><rect x="600" y="500" width="20" height="20" fill="rgb(0,0,0)" fill-opacity="1.0" shape-rendering="crispEdges" /><rect x="620" y="500" width="20" height="20" fill="rgb(0,0,0)" fill-opacity="1.0" shape-rendering="crispEdges" /><rect x="640" y="500" width="20" height="20" fill="rgb(0,0,0)" fill-opacity="1.0" shape-rendering="crispEdges" /><rect x="260" y="520" width="20" height="20" fill="rgb(0,0,0)" fill-opacity="1.0" shape-rendering="crispEdges" /><rect x="320" y="520" width="20" height="20" fill="rgb(0,0,0)" fill-opacity="1.0" shape-rendering="crispEdges" /><rect x="340" y="520" width="20" height="20" fill="rgb(0,0,0)" fill-opacity="1.0" shape-rendering="crispEdges" /><rect x="360" y="520" width="20" height="20" fill="rgb(0,0,0)" fill-opacity="1.0" shape-rendering="crispEdges" /><rect x="400" y="520" width="20" height="20" fill="rgb(0,0,0)" fill-opacity="1.0" shape-rendering="crispEdges" /><rect x="420" y="520" width="20" height="20" fill="rgb(0,0,0)" fill-opacity="1.0" shape-rendering="crispEdges" /><rect x="440" y="520" width="20" height="20" fill="rgb(0,0,0)" fill-opacity="1.0" shape-rendering="crispEdges" /><rect x="460" y="520" width="20" height="20" fill="rgb(0,0,0)" fill-opacity="1.0" shape-rendering="crispEdges" /><rect x="480" y="520" width="20" height="20" fill="rgb(0,0,0)" fill-opacity="1.0" shape-rendering="crispEdges" /><rect x="520" y="520" width="20" height="20" fill="rgb(0,0,0)" fill-opacity="1.0" shape-rendering="crispEdges" /><rect x="560" y="520" width="20" height="20" fill="rgb(0,0,0)" fill-opacity="1.0" shape-rendering="crispEdges" /><rect x="580" y="520" width="20" height="20" fill="rgb(0,0,0)" fill-opacity="1.0" shape-rendering="crispEdges" /><rect x="240" y="540" width="20" height="20" fill="rgb(0,0,0)" fill-opacity="1.0" shape-rendering="crispEdges" /><rect x="280" y="540" width="20" height="20" fill="rgb(0,0,0)" fill-opacity="1.0" shape-rendering="crispEdges" /><rect x="300" y="540" width="20" height="20" fill="rgb(0,0,0)" fill-opacity="1.0" shape-rendering="crispEdges" /><rect x="340" y="540" width="20" height="20" fill="rgb(0,0,0)" fill-opacity="1.0" shape-rendering="crispEdges" /><rect x="440" y="540" width="20" height="20" fill="rgb(0,0,0)" fill-opacity="1.0" shape-rendering="crispEdges" /><rect x="460" y="540" width="20" height="20" fill="rgb(0,0,0)" fill-opacity="1.0" shape-rendering="crispEdges" /><rect x="480" y="540" width="20" height="20" fill="rgb(0,0,0)" fill-opacity="1.0" shape-rendering="crispEdges" /><rect x="560" y="540" width="20" height="20" fill="rgb(0,0,0)" fill-opacity="1.0" shape-rendering="crispEdges" /><rect x="600" y="540" width="20" height="20" fill="rgb(0,0,0)" fill-opacity="1.0" shape-rendering="crispEdges" /><rect x="280" y="560" width="20" height="20" fill="rgb(0,0,0)" fill-opacity="1.0" shape-rendering="crispEdges" /><rect x="320" y="560" width="20" height="20" fill="rgb(0,0,0)" fill-opacity="1.0" shape-rendering="crispEdges" /><rect x="360" y="560" width="20" height="20" fill="rgb(0,0,0)" fill-opacity="1.0" shape-rendering="crispEdges" /><rect x="440" y="560" width="20" height="20" fill="rgb(0,0,0)" fill-opacity="1.0" shape-rendering="crispEdges" /><rect x="480" y="560" width="20" height="20" fill="rgb(0,0,0)" fill-opacity="1.0" shape-rendering="crispEdges" /><rect x="500" y="560" width="20" height="20" fill="rgb(0,0,0)" fill-opacity="1.0" shape-rendering="crispEdges" /><rect x="520" y="560" width="20" height="20" fill="rgb(0,0,0)" fill-opacity="1.0" shape-rendering="crispEdges" /><rect x="540" y="560" width="20" height="20" fill="rgb(0,0,0)" fill-opacity="1.0" shape-rendering="crispEdges" /><rect x="560" y="560" width="20" height="20" fill="rgb(0,0,0)" fill-opacity="1.0" shape-rendering="crispEdges" /><rect x="600" y="560" width="20" height="20" fill="rgb(0,0,0)" fill-opacity="1.0" shape-rendering="crispEdges" /><rect x="620" y="560" width="20" height="20" fill="rgb(0,0,0)" fill-opacity="1.0" shape-rendering="crispEdges" /><rect x="240" y="580" width="20" height="20" fill="rgb(0,0,0)" fill-opacity="1.0" shape-rendering="crispEdges" /><rect x="260" y="580" width="20" height="20" fill="rgb(0,0,0)" fill-opacity="1.0" shape-rendering="crispEdges" /><rect x="320" y="580" width="20" height="20" fill="rgb(0,0,0)" fill-opacity="1.0" shape-rendering="crispEdges" /><rect x="340" y="580" width="20" height="20" fill="rgb(0,0,0)" fill-opacity="1.0" shape-rendering="crispEdges" /><rect x="360" y="580" width="20" height="20" fill="rgb(0,0,0)" fill-opacity="1.0" shape-rendering="crispEdges" /><rect x="380" y="580" width="20" height="20" fill="rgb(0,0,0)" fill-opacity="1.0" shape-rendering="crispEdges" /><rect x="400" y="580" width="20" height="20" fill="rgb(0,0,0)" fill-opacity="1.0" shape-rendering="crispEdges" /><rect x="420" y="580" width="20" height="20" fill="rgb(0,0,0)" fill-opacity="1.0" shape-rendering="crispEdges" /><rect x="480" y="580" width="20" height="20" fill="rgb(0,0,0)" fill-opacity="1.0" shape-rendering="crispEdges" /><rect x="540" y="580" width="20" height="20" fill="rgb(0,0,0)" fill-opacity="1.0" shape-rendering="crispEdges" /><rect x="560" y="580" width="20" height="20" fill="rgb(0,0,0)" fill-opacity="1.0" shape-rendering="crispEdges" /><rect x="580" y="580" width="20" height="20" fill="rgb(0,0,0)" fill-opacity="1.0" shape-rendering="crispEdges" /><rect x="640" y="580" width="20" height="20" fill="rgb(0,0,0)" fill-opacity="1.0" shape-rendering="crispEdges" /><rect x="280" y="600" width="20" height="20" fill="rgb(0,0,0)" fill-opacity="1.0" shape-rendering="crispEdges" /><rect x="300" y="600" width="20" height="20" fill="rgb(0,0,0)" fill-opacity="1.0" shape-rendering="crispEdges" /><rect x="320" y="600" width="20" height="20" fill="rgb(0,0,0)" fill-opacity="1.0" shape-rendering="crispEdges" /><rect x="340" y="600" width="20" height="20" fill="rgb(0,0,0)" fill-opacity="1.0" shape-rendering="crispEdges" /><rect x="360" y="600" width="20" height="20" fill="rgb(0,0,0)" fill-opacity="1.0" shape-rendering="crispEdges" /><rect x="380" y="600" width="20" height="20" fill="rgb(0,0,0)" fill-opacity="1.0" shape-rendering="crispEdges" /><rect x="420" y="600" width="20" height="20" fill="rgb(0,0,0)" fill-opacity="1.0" shape-rendering="crispEdges" /><rect x="440" y="600" width="20" height="20" fill="rgb(0,0,0)" fill-opacity="1.0" shape-rendering="crispEdges" /><rect x="480" y="600" width="20" height="20" fill="rgb(0,0,0)" fill-opacity="1.0" shape-rendering="crispEdges" /><rect x="520" y="600" width="20" height="20" fill="rgb(0,0,0)" fill-opacity="1.0" shape-rendering="crispEdges" /><rect x="640" y="600" width="20" height="20" fill="rgb(0,0,0)" fill-opacity="1.0" shape-rendering="crispEdges" /><rect x="300" y="620" width="20" height="20" fill="rgb(0,0,0)" fill-opacity="1.0" shape-rendering="crispEdges" /><rect x="320" y="620" width="20" height="20" fill="rgb(0,0,0)" fill-opacity="1.0" shape-rendering="crispEdges" /><rect x="380" y="620" width="20" height="20" fill="rgb(0,0,0)" fill-opacity="1.0" shape-rendering="crispEdges" /><rect x="460" y="620" width="20" height="20" fill="rgb(0,0,0)" fill-opacity="1.0" shape-rendering="crispEdges" /><rect x="520" y="620" width="20" height="20" fill="rgb(0,0,0)" fill-opacity="1.0" shape-rendering="crispEdges" /><rect x="560" y="620" width="20" height="20" fill="rgb(0,0,0)" fill-opacity="1.0" shape-rendering="crispEdges" /><rect x="580" y="620" width="20" height="20" fill="rgb(0,0,0)" fill-opacity="1.0" shape-rendering="crispEdges" /><rect x="620" y="620" width="20" height="20" fill="rgb(0,0,0)" fill-opacity="1.0" shape-rendering="crispEdges" /><rect x="640" y="620" width="20" height="20" fill="rgb(0,0,0)" fill-opacity="1.0" shape-rendering="crispEdges" /><rect x="240" y="640" width="20" height="20" fill="rgb(0,0,0)" fill-opacity="1.0" shape-rendering="crispEdges" /><rect x="260" y="640" width="20" height="20" fill="rgb(0,0,0)" fill-opacity="1.0" shape-rendering="crispEdges" /><rect x="340" y="640" width="20" height="20" fill="rgb(0,0,0)" fill-opacity="1.0" shape-rendering="crispEdges" /><rect x="380" y="640" width="20" height="20" fill="rgb(0,0,0)" fill-opacity="1.0" shape-rendering="crispEdges" /><rect x="440" y="640" width="20" height="20" fill="rgb(0,0,0)" fill-opacity="1.0" shape-rendering="crispEdges" /><rect x="520" y="640" width="20" height="20" fill="rgb(0,0,0)" fill-opacity="1.0" shape-rendering="crispEdges" /><rect x="540" y="640" width="20" height="20" fill="rgb(0,0,0)" fill-opacity="1.0" shape-rendering="crispEdges" /><rect x="580" y="640" width="20" height="20" fill="rgb(0,0,0)" fill-opacity="1.0" shape-rendering="crispEdges" /><rect x="80" y="80" width="140" height="140" fill="rgb(0,0,0)" fill-opacity="1.0" shape-rendering="crispEdges" /><rect x="100.0" y="100.0" width="100.0" height="100.0" fill="rgb(255,255,255)" fill-opacity="1.0" shape-rendering="crispEdges" /><rect x="520" y="80" width="140" height="140" fill="rgb(0,0,0)" fill-opacity="1.0" shape-rendering="crispEdges" /><rect x="540.0" y="100.0" width="100.0" height="100.0" fill="rgb(255,255,255)" fill-opacity="1.0" shape-rendering="crispEdges" /><rect x="120" y="120" width="60" height="60" fill="rgb(0,0,0)" fill-opacity="1.0" shape-rendering="crispEdges" /><rect x="560" y="120" width="60" height="60" fill="rgb(0,0,0)" fill-opacity="1.0" shape-rendering="crispEdges" /><rect x="80" y="520" width="140" height="140" fill="rgb(0,0,0)" fill-opacity="1.0" shape-rendering="crispEdges" /><rect x="100.0" y="540.0" width="100.0" height="100.0" fill="rgb(255,255,255)" fill-opacity="1.0" shape-rendering="crispEdges" /><rect x="120" y="560" width="60" height="60" fill="rgb(0,0,0)" fill-opacity="1.0" shape-rendering="crispEdges" /></svg></g></svg>