<?xml version="1.0" standalone="no"?>
<svg xmlns="http://www.w3.org/2000/svg" version="1.1" width="245" height="245">
	<!-- Created with https://api.qrserver.com (QR Code API, see goQR.me/api for information) -->
	<title>QR Code</title>
	<desc>btc:35t9jRfkhtww8muUcKcLqJicJR3oQ2PgTi</desc>
	<rect style="fill:rgb(255, 255, 255);fill-opacity:1" x="0" y="0" width="245" height="245" />
	<g id="elements">
		<path style="fill:rgb(0, 0, 0)" d="M 7,7 l 7,0 0,7 -7,0 z M 14,7 l 7,0 0,7 -7,0 z M 21,7 l 7,0 0,7 -7,0 z M 28,7 l 7,0 0,7 -7,0 z M 35,7 l 7,0 0,7 -7,0 z M 42,7 l 7,0 0,7 -7,0 z M 49,7 l 7,0 0,7 -7,0 z M 63,7 l 7,0 0,7 -7,0 z M 84,7 l 7,0 0,7 -7,0 z M 98,7 l 7,0 0,7 -7,0 z M 112,7 l 7,0 0,7 -7,0 z M 126,7 l 7,0 0,7 -7,0 z M 133,7 l 7,0 0,7 -7,0 z M 147,7 l 7,0 0,7 -7,0 z M 154,7 l 7,0 0,7 -7,0 z M 161,7 l 7,0 0,7 -7,0 z M 168,7 l 7,0 0,7 -7,0 z M 189,7 l 7,0 0,7 -7,0 z M 196,7 l 7,0 0,7 -7,0 z M 203,7 l 7,0 0,7 -7,0 z M 210,7 l 7,0 0,7 -7,0 z M 217,7 l 7,0 0,7 -7,0 z M 224,7 l 7,0 0,7 -7,0 z M 231,7 l 7,0 0,7 -7,0 z M 7,14 l 7,0 0,7 -7,0 z M 49,14 l 7,0 0,7 -7,0 z M 77,14 l 7,0 0,7 -7,0 z M 84,14 l 7,0 0,7 -7,0 z M 91,14 l 7,0 0,7 -7,0 z M 98,14 l 7,0 0,7 -7,0 z M 119,14 l 7,0 0,7 -7,0 z M 126,14 l 7,0 0,7 -7,0 z M 147,14 l 7,0 0,7 -7,0 z M 154,14 l 7,0 0,7 -7,0 z M 161,14 l 7,0 0,7 -7,0 z M 175,14 l 7,0 0,7 -7,0 z M 189,14 l 7,0 0,7 -7,0 z M 231,14 l 7,0 0,7 -7,0 z M 7,21 l 7,0 0,7 -7,0 z M 21,21 l 7,0 0,7 -7,0 z M 28,21 l 7,0 0,7 -7,0 z M 35,21 l 7,0 0,7 -7,0 z M 49,21 l 7,0 0,7 -7,0 z M 70,21 l 7,0 0,7 -7,0 z M 84,21 l 7,0 0,7 -7,0 z M 91,21 l 7,0 0,7 -7,0 z M 98,21 l 7,0 0,7 -7,0 z M 112,21 l 7,0 0,7 -7,0 z M 126,21 l 7,0 0,7 -7,0 z M 133,21 l 7,0 0,7 -7,0 z M 140,21 l 7,0 0,7 -7,0 z M 154,21 l 7,0 0,7 -7,0 z M 175,21 l 7,0 0,7 -7,0 z M 189,21 l 7,0 0,7 -7,0 z M 203,21 l 7,0 0,7 -7,0 z M 210,21 l 7,0 0,7 -7,0 z M 217,21 l 7,0 0,7 -7,0 z M 231,21 l 7,0 0,7 -7,0 z M 7,28 l 7,0 0,7 -7,0 z M 21,28 l 7,0 0,7 -7,0 z M 28,28 l 7,0 0,7 -7,0 z M 35,28 l 7,0 0,7 -7,0 z M 49,28 l 7,0 0,7 -7,0 z M 70,28 l 7,0 0,7 -7,0 z M 105,28 l 7,0 0,7 -7,0 z M 112,28 l 7,0 0,7 -7,0 z M 147,28 l 7,0 0,7 -7,0 z M 161,28 l 7,0 0,7 -7,0 z M 168,28 l 7,0 0,7 -7,0 z M 189,28 l 7,0 0,7 -7,0 z M 203,28 l 7,0 0,7 -7,0 z M 210,28 l 7,0 0,7 -7,0 z M 217,28 l 7,0 0,7 -7,0 z M 231,28 l 7,0 0,7 -7,0 z M 7,35 l 7,0 0,7 -7,0 z M 21,35 l 7,0 0,7 -7,0 z M 28,35 l 7,0 0,7 -7,0 z M 35,35 l 7,0 0,7 -7,0 z M 49,35 l 7,0 0,7 -7,0 z M 63,35 l 7,0 0,7 -7,0 z M 70,35 l 7,0 0,7 -7,0 z M 77,35 l 7,0 0,7 -7,0 z M 91,35 l 7,0 0,7 -7,0 z M 112,35 l 7,0 0,7 -7,0 z M 126,35 l 7,0 0,7 -7,0 z M 133,35 l 7,0 0,7 -7,0 z M 154,35 l 7,0 0,7 -7,0 z M 189,35 l 7,0 0,7 -7,0 z M 203,35 l 7,0 0,7 -7,0 z M 210,35 l 7,0 0,7 -7,0 z M 217,35 l 7,0 0,7 -7,0 z M 231,35 l 7,0 0,7 -7,0 z M 7,42 l 7,0 0,7 -7,0 z M 49,42 l 7,0 0,7 -7,0 z M 63,42 l 7,0 0,7 -7,0 z M 91,42 l 7,0 0,7 -7,0 z M 98,42 l 7,0 0,7 -7,0 z M 112,42 l 7,0 0,7 -7,0 z M 126,42 l 7,0 0,7 -7,0 z M 133,42 l 7,0 0,7 -7,0 z M 147,42 l 7,0 0,7 -7,0 z M 154,42 l 7,0 0,7 -7,0 z M 161,42 l 7,0 0,7 -7,0 z M 189,42 l 7,0 0,7 -7,0 z M 231,42 l 7,0 0,7 -7,0 z M 7,49 l 7,0 0,7 -7,0 z M 14,49 l 7,0 0,7 -7,0 z M 21,49 l 7,0 0,7 -7,0 z M 28,49 l 7,0 0,7 -7,0 z M 35,49 l 7,0 0,7 -7,0 z M 42,49 l 7,0 0,7 -7,0 z M 49,49 l 7,0 0,7 -7,0 z M 63,49 l 7,0 0,7 -7,0 z M 77,49 l 7,0 0,7 -7,0 z M 91,49 l 7,0 0,7 -7,0 z M 105,49 l 7,0 0,7 -7,0 z M 119,49 l 7,0 0,7 -7,0 z M 133,49 l 7,0 0,7 -7,0 z M 147,49 l 7,0 0,7 -7,0 z M 161,49 l 7,0 0,7 -7,0 z M 175,49 l 7,0 0,7 -7,0 z M 189,49 l 7,0 0,7 -7,0 z M 196,49 l 7,0 0,7 -7,0 z M 203,49 l 7,0 0,7 -7,0 z M 210,49 l 7,0 0,7 -7,0 z M 217,49 l 7,0 0,7 -7,0 z M 224,49 l 7,0 0,7 -7,0 z M 231,49 l 7,0 0,7 -7,0 z M 70,56 l 7,0 0,7 -7,0 z M 105,56 l 7,0 0,7 -7,0 z M 112,56 l 7,0 0,7 -7,0 z M 154,56 l 7,0 0,7 -7,0 z M 168,56 l 7,0 0,7 -7,0 z M 14,63 l 7,0 0,7 -7,0 z M 21,63 l 7,0 0,7 -7,0 z M 28,63 l 7,0 0,7 -7,0 z M 35,63 l 7,0 0,7 -7,0 z M 42,63 l 7,0 0,7 -7,0 z M 49,63 l 7,0 0,7 -7,0 z M 56,63 l 7,0 0,7 -7,0 z M 70,63 l 7,0 0,7 -7,0 z M 77,63 l 7,0 0,7 -7,0 z M 112,63 l 7,0 0,7 -7,0 z M 126,63 l 7,0 0,7 -7,0 z M 161,63 l 7,0 0,7 -7,0 z M 175,63 l 7,0 0,7 -7,0 z M 196,63 l 7,0 0,7 -7,0 z M 203,63 l 7,0 0,7 -7,0 z M 231,63 l 7,0 0,7 -7,0 z M 7,70 l 7,0 0,7 -7,0 z M 21,70 l 7,0 0,7 -7,0 z M 28,70 l 7,0 0,7 -7,0 z M 84,70 l 7,0 0,7 -7,0 z M 98,70 l 7,0 0,7 -7,0 z M 133,70 l 7,0 0,7 -7,0 z M 140,70 l 7,0 0,7 -7,0 z M 147,70 l 7,0 0,7 -7,0 z M 161,70 l 7,0 0,7 -7,0 z M 168,70 l 7,0 0,7 -7,0 z M 182,70 l 7,0 0,7 -7,0 z M 189,70 l 7,0 0,7 -7,0 z M 196,70 l 7,0 0,7 -7,0 z M 210,70 l 7,0 0,7 -7,0 z M 217,70 l 7,0 0,7 -7,0 z M 21,77 l 7,0 0,7 -7,0 z M 28,77 l 7,0 0,7 -7,0 z M 35,77 l 7,0 0,7 -7,0 z M 49,77 l 7,0 0,7 -7,0 z M 56,77 l 7,0 0,7 -7,0 z M 63,77 l 7,0 0,7 -7,0 z M 84,77 l 7,0 0,7 -7,0 z M 91,77 l 7,0 0,7 -7,0 z M 98,77 l 7,0 0,7 -7,0 z M 105,77 l 7,0 0,7 -7,0 z M 112,77 l 7,0 0,7 -7,0 z M 133,77 l 7,0 0,7 -7,0 z M 147,77 l 7,0 0,7 -7,0 z M 154,77 l 7,0 0,7 -7,0 z M 196,77 l 7,0 0,7 -7,0 z M 217,77 l 7,0 0,7 -7,0 z M 224,77 l 7,0 0,7 -7,0 z M 14,84 l 7,0 0,7 -7,0 z M 42,84 l 7,0 0,7 -7,0 z M 56,84 l 7,0 0,7 -7,0 z M 70,84 l 7,0 0,7 -7,0 z M 77,84 l 7,0 0,7 -7,0 z M 84,84 l 7,0 0,7 -7,0 z M 91,84 l 7,0 0,7 -7,0 z M 147,84 l 7,0 0,7 -7,0 z M 154,84 l 7,0 0,7 -7,0 z M 161,84 l 7,0 0,7 -7,0 z M 168,84 l 7,0 0,7 -7,0 z M 175,84 l 7,0 0,7 -7,0 z M 182,84 l 7,0 0,7 -7,0 z M 189,84 l 7,0 0,7 -7,0 z M 210,84 l 7,0 0,7 -7,0 z M 217,84 l 7,0 0,7 -7,0 z M 224,84 l 7,0 0,7 -7,0 z M 14,91 l 7,0 0,7 -7,0 z M 21,91 l 7,0 0,7 -7,0 z M 28,91 l 7,0 0,7 -7,0 z M 35,91 l 7,0 0,7 -7,0 z M 49,91 l 7,0 0,7 -7,0 z M 77,91 l 7,0 0,7 -7,0 z M 84,91 l 7,0 0,7 -7,0 z M 98,91 l 7,0 0,7 -7,0 z M 133,91 l 7,0 0,7 -7,0 z M 154,91 l 7,0 0,7 -7,0 z M 168,91 l 7,0 0,7 -7,0 z M 175,91 l 7,0 0,7 -7,0 z M 182,91 l 7,0 0,7 -7,0 z M 203,91 l 7,0 0,7 -7,0 z M 14,98 l 7,0 0,7 -7,0 z M 21,98 l 7,0 0,7 -7,0 z M 35,98 l 7,0 0,7 -7,0 z M 42,98 l 7,0 0,7 -7,0 z M 70,98 l 7,0 0,7 -7,0 z M 77,98 l 7,0 0,7 -7,0 z M 98,98 l 7,0 0,7 -7,0 z M 112,98 l 7,0 0,7 -7,0 z M 119,98 l 7,0 0,7 -7,0 z M 147,98 l 7,0 0,7 -7,0 z M 154,98 l 7,0 0,7 -7,0 z M 168,98 l 7,0 0,7 -7,0 z M 189,98 l 7,0 0,7 -7,0 z M 196,98 l 7,0 0,7 -7,0 z M 224,98 l 7,0 0,7 -7,0 z M 231,98 l 7,0 0,7 -7,0 z M 7,105 l 7,0 0,7 -7,0 z M 14,105 l 7,0 0,7 -7,0 z M 35,105 l 7,0 0,7 -7,0 z M 49,105 l 7,0 0,7 -7,0 z M 63,105 l 7,0 0,7 -7,0 z M 91,105 l 7,0 0,7 -7,0 z M 98,105 l 7,0 0,7 -7,0 z M 105,105 l 7,0 0,7 -7,0 z M 126,105 l 7,0 0,7 -7,0 z M 140,105 l 7,0 0,7 -7,0 z M 161,105 l 7,0 0,7 -7,0 z M 175,105 l 7,0 0,7 -7,0 z M 189,105 l 7,0 0,7 -7,0 z M 196,105 l 7,0 0,7 -7,0 z M 203,105 l 7,0 0,7 -7,0 z M 224,105 l 7,0 0,7 -7,0 z M 7,112 l 7,0 0,7 -7,0 z M 14,112 l 7,0 0,7 -7,0 z M 21,112 l 7,0 0,7 -7,0 z M 35,112 l 7,0 0,7 -7,0 z M 70,112 l 7,0 0,7 -7,0 z M 77,112 l 7,0 0,7 -7,0 z M 91,112 l 7,0 0,7 -7,0 z M 98,112 l 7,0 0,7 -7,0 z M 133,112 l 7,0 0,7 -7,0 z M 140,112 l 7,0 0,7 -7,0 z M 147,112 l 7,0 0,7 -7,0 z M 154,112 l 7,0 0,7 -7,0 z M 161,112 l 7,0 0,7 -7,0 z M 175,112 l 7,0 0,7 -7,0 z M 182,112 l 7,0 0,7 -7,0 z M 196,112 l 7,0 0,7 -7,0 z M 210,112 l 7,0 0,7 -7,0 z M 217,112 l 7,0 0,7 -7,0 z M 231,112 l 7,0 0,7 -7,0 z M 21,119 l 7,0 0,7 -7,0 z M 28,119 l 7,0 0,7 -7,0 z M 35,119 l 7,0 0,7 -7,0 z M 49,119 l 7,0 0,7 -7,0 z M 63,119 l 7,0 0,7 -7,0 z M 77,119 l 7,0 0,7 -7,0 z M 84,119 l 7,0 0,7 -7,0 z M 98,119 l 7,0 0,7 -7,0 z M 105,119 l 7,0 0,7 -7,0 z M 112,119 l 7,0 0,7 -7,0 z M 119,119 l 7,0 0,7 -7,0 z M 126,119 l 7,0 0,7 -7,0 z M 140,119 l 7,0 0,7 -7,0 z M 147,119 l 7,0 0,7 -7,0 z M 161,119 l 7,0 0,7 -7,0 z M 175,119 l 7,0 0,7 -7,0 z M 182,119 l 7,0 0,7 -7,0 z M 203,119 l 7,0 0,7 -7,0 z M 7,126 l 7,0 0,7 -7,0 z M 14,126 l 7,0 0,7 -7,0 z M 35,126 l 7,0 0,7 -7,0 z M 42,126 l 7,0 0,7 -7,0 z M 63,126 l 7,0 0,7 -7,0 z M 70,126 l 7,0 0,7 -7,0 z M 77,126 l 7,0 0,7 -7,0 z M 91,126 l 7,0 0,7 -7,0 z M 126,126 l 7,0 0,7 -7,0 z M 147,126 l 7,0 0,7 -7,0 z M 161,126 l 7,0 0,7 -7,0 z M 168,126 l 7,0 0,7 -7,0 z M 189,126 l 7,0 0,7 -7,0 z M 217,126 l 7,0 0,7 -7,0 z M 224,126 l 7,0 0,7 -7,0 z M 231,126 l 7,0 0,7 -7,0 z M 7,133 l 7,0 0,7 -7,0 z M 14,133 l 7,0 0,7 -7,0 z M 42,133 l 7,0 0,7 -7,0 z M 49,133 l 7,0 0,7 -7,0 z M 56,133 l 7,0 0,7 -7,0 z M 77,133 l 7,0 0,7 -7,0 z M 84,133 l 7,0 0,7 -7,0 z M 98,133 l 7,0 0,7 -7,0 z M 119,133 l 7,0 0,7 -7,0 z M 126,133 l 7,0 0,7 -7,0 z M 133,133 l 7,0 0,7 -7,0 z M 147,133 l 7,0 0,7 -7,0 z M 161,133 l 7,0 0,7 -7,0 z M 175,133 l 7,0 0,7 -7,0 z M 182,133 l 7,0 0,7 -7,0 z M 189,133 l 7,0 0,7 -7,0 z M 210,133 l 7,0 0,7 -7,0 z M 224,133 l 7,0 0,7 -7,0 z M 7,140 l 7,0 0,7 -7,0 z M 14,140 l 7,0 0,7 -7,0 z M 28,140 l 7,0 0,7 -7,0 z M 42,140 l 7,0 0,7 -7,0 z M 77,140 l 7,0 0,7 -7,0 z M 105,140 l 7,0 0,7 -7,0 z M 112,140 l 7,0 0,7 -7,0 z M 119,140 l 7,0 0,7 -7,0 z M 126,140 l 7,0 0,7 -7,0 z M 133,140 l 7,0 0,7 -7,0 z M 147,140 l 7,0 0,7 -7,0 z M 168,140 l 7,0 0,7 -7,0 z M 182,140 l 7,0 0,7 -7,0 z M 189,140 l 7,0 0,7 -7,0 z M 217,140 l 7,0 0,7 -7,0 z M 7,147 l 7,0 0,7 -7,0 z M 14,147 l 7,0 0,7 -7,0 z M 21,147 l 7,0 0,7 -7,0 z M 49,147 l 7,0 0,7 -7,0 z M 63,147 l 7,0 0,7 -7,0 z M 70,147 l 7,0 0,7 -7,0 z M 91,147 l 7,0 0,7 -7,0 z M 105,147 l 7,0 0,7 -7,0 z M 126,147 l 7,0 0,7 -7,0 z M 147,147 l 7,0 0,7 -7,0 z M 154,147 l 7,0 0,7 -7,0 z M 161,147 l 7,0 0,7 -7,0 z M 182,147 l 7,0 0,7 -7,0 z M 210,147 l 7,0 0,7 -7,0 z M 224,147 l 7,0 0,7 -7,0 z M 231,147 l 7,0 0,7 -7,0 z M 7,154 l 7,0 0,7 -7,0 z M 21,154 l 7,0 0,7 -7,0 z M 28,154 l 7,0 0,7 -7,0 z M 35,154 l 7,0 0,7 -7,0 z M 42,154 l 7,0 0,7 -7,0 z M 56,154 l 7,0 0,7 -7,0 z M 63,154 l 7,0 0,7 -7,0 z M 70,154 l 7,0 0,7 -7,0 z M 77,154 l 7,0 0,7 -7,0 z M 84,154 l 7,0 0,7 -7,0 z M 154,154 l 7,0 0,7 -7,0 z M 182,154 l 7,0 0,7 -7,0 z M 231,154 l 7,0 0,7 -7,0 z M 7,161 l 7,0 0,7 -7,0 z M 42,161 l 7,0 0,7 -7,0 z M 49,161 l 7,0 0,7 -7,0 z M 63,161 l 7,0 0,7 -7,0 z M 70,161 l 7,0 0,7 -7,0 z M 84,161 l 7,0 0,7 -7,0 z M 91,161 l 7,0 0,7 -7,0 z M 105,161 l 7,0 0,7 -7,0 z M 112,161 l 7,0 0,7 -7,0 z M 133,161 l 7,0 0,7 -7,0 z M 147,161 l 7,0 0,7 -7,0 z M 161,161 l 7,0 0,7 -7,0 z M 175,161 l 7,0 0,7 -7,0 z M 189,161 l 7,0 0,7 -7,0 z M 196,161 l 7,0 0,7 -7,0 z M 203,161 l 7,0 0,7 -7,0 z M 210,161 l 7,0 0,7 -7,0 z M 217,161 l 7,0 0,7 -7,0 z M 224,161 l 7,0 0,7 -7,0 z M 7,168 l 7,0 0,7 -7,0 z M 35,168 l 7,0 0,7 -7,0 z M 42,168 l 7,0 0,7 -7,0 z M 56,168 l 7,0 0,7 -7,0 z M 63,168 l 7,0 0,7 -7,0 z M 77,168 l 7,0 0,7 -7,0 z M 91,168 l 7,0 0,7 -7,0 z M 105,168 l 7,0 0,7 -7,0 z M 112,168 l 7,0 0,7 -7,0 z M 154,168 l 7,0 0,7 -7,0 z M 161,168 l 7,0 0,7 -7,0 z M 168,168 l 7,0 0,7 -7,0 z M 175,168 l 7,0 0,7 -7,0 z M 189,168 l 7,0 0,7 -7,0 z M 196,168 l 7,0 0,7 -7,0 z M 203,168 l 7,0 0,7 -7,0 z M 210,168 l 7,0 0,7 -7,0 z M 217,168 l 7,0 0,7 -7,0 z M 231,168 l 7,0 0,7 -7,0 z M 7,175 l 7,0 0,7 -7,0 z M 28,175 l 7,0 0,7 -7,0 z M 35,175 l 7,0 0,7 -7,0 z M 49,175 l 7,0 0,7 -7,0 z M 84,175 l 7,0 0,7 -7,0 z M 91,175 l 7,0 0,7 -7,0 z M 105,175 l 7,0 0,7 -7,0 z M 119,175 l 7,0 0,7 -7,0 z M 126,175 l 7,0 0,7 -7,0 z M 133,175 l 7,0 0,7 -7,0 z M 147,175 l 7,0 0,7 -7,0 z M 175,175 l 7,0 0,7 -7,0 z M 182,175 l 7,0 0,7 -7,0 z M 189,175 l 7,0 0,7 -7,0 z M 196,175 l 7,0 0,7 -7,0 z M 203,175 l 7,0 0,7 -7,0 z M 224,175 l 7,0 0,7 -7,0 z M 63,182 l 7,0 0,7 -7,0 z M 70,182 l 7,0 0,7 -7,0 z M 77,182 l 7,0 0,7 -7,0 z M 105,182 l 7,0 0,7 -7,0 z M 112,182 l 7,0 0,7 -7,0 z M 140,182 l 7,0 0,7 -7,0 z M 147,182 l 7,0 0,7 -7,0 z M 154,182 l 7,0 0,7 -7,0 z M 161,182 l 7,0 0,7 -7,0 z M 175,182 l 7,0 0,7 -7,0 z M 203,182 l 7,0 0,7 -7,0 z M 7,189 l 7,0 0,7 -7,0 z M 14,189 l 7,0 0,7 -7,0 z M 21,189 l 7,0 0,7 -7,0 z M 28,189 l 7,0 0,7 -7,0 z M 35,189 l 7,0 0,7 -7,0 z M 42,189 l 7,0 0,7 -7,0 z M 49,189 l 7,0 0,7 -7,0 z M 63,189 l 7,0 0,7 -7,0 z M 77,189 l 7,0 0,7 -7,0 z M 84,189 l 7,0 0,7 -7,0 z M 91,189 l 7,0 0,7 -7,0 z M 105,189 l 7,0 0,7 -7,0 z M 133,189 l 7,0 0,7 -7,0 z M 147,189 l 7,0 0,7 -7,0 z M 154,189 l 7,0 0,7 -7,0 z M 168,189 l 7,0 0,7 -7,0 z M 175,189 l 7,0 0,7 -7,0 z M 189,189 l 7,0 0,7 -7,0 z M 203,189 l 7,0 0,7 -7,0 z M 224,189 l 7,0 0,7 -7,0 z M 7,196 l 7,0 0,7 -7,0 z M 49,196 l 7,0 0,7 -7,0 z M 63,196 l 7,0 0,7 -7,0 z M 70,196 l 7,0 0,7 -7,0 z M 77,196 l 7,0 0,7 -7,0 z M 84,196 l 7,0 0,7 -7,0 z M 98,196 l 7,0 0,7 -7,0 z M 105,196 l 7,0 0,7 -7,0 z M 112,196 l 7,0 0,7 -7,0 z M 119,196 l 7,0 0,7 -7,0 z M 147,196 l 7,0 0,7 -7,0 z M 154,196 l 7,0 0,7 -7,0 z M 161,196 l 7,0 0,7 -7,0 z M 168,196 l 7,0 0,7 -7,0 z M 175,196 l 7,0 0,7 -7,0 z M 203,196 l 7,0 0,7 -7,0 z M 217,196 l 7,0 0,7 -7,0 z M 224,196 l 7,0 0,7 -7,0 z M 231,196 l 7,0 0,7 -7,0 z M 7,203 l 7,0 0,7 -7,0 z M 21,203 l 7,0 0,7 -7,0 z M 28,203 l 7,0 0,7 -7,0 z M 35,203 l 7,0 0,7 -7,0 z M 49,203 l 7,0 0,7 -7,0 z M 63,203 l 7,0 0,7 -7,0 z M 77,203 l 7,0 0,7 -7,0 z M 84,203 l 7,0 0,7 -7,0 z M 105,203 l 7,0 0,7 -7,0 z M 133,203 l 7,0 0,7 -7,0 z M 140,203 l 7,0 0,7 -7,0 z M 154,203 l 7,0 0,7 -7,0 z M 175,203 l 7,0 0,7 -7,0 z M 182,203 l 7,0 0,7 -7,0 z M 189,203 l 7,0 0,7 -7,0 z M 196,203 l 7,0 0,7 -7,0 z M 203,203 l 7,0 0,7 -7,0 z M 210,203 l 7,0 0,7 -7,0 z M 7,210 l 7,0 0,7 -7,0 z M 21,210 l 7,0 0,7 -7,0 z M 28,210 l 7,0 0,7 -7,0 z M 35,210 l 7,0 0,7 -7,0 z M 49,210 l 7,0 0,7 -7,0 z M 63,210 l 7,0 0,7 -7,0 z M 77,210 l 7,0 0,7 -7,0 z M 105,210 l 7,0 0,7 -7,0 z M 119,210 l 7,0 0,7 -7,0 z M 147,210 l 7,0 0,7 -7,0 z M 161,210 l 7,0 0,7 -7,0 z M 182,210 l 7,0 0,7 -7,0 z M 203,210 l 7,0 0,7 -7,0 z M 217,210 l 7,0 0,7 -7,0 z M 231,210 l 7,0 0,7 -7,0 z M 7,217 l 7,0 0,7 -7,0 z M 21,217 l 7,0 0,7 -7,0 z M 28,217 l 7,0 0,7 -7,0 z M 35,217 l 7,0 0,7 -7,0 z M 49,217 l 7,0 0,7 -7,0 z M 63,217 l 7,0 0,7 -7,0 z M 70,217 l 7,0 0,7 -7,0 z M 77,217 l 7,0 0,7 -7,0 z M 91,217 l 7,0 0,7 -7,0 z M 98,217 l 7,0 0,7 -7,0 z M 119,217 l 7,0 0,7 -7,0 z M 126,217 l 7,0 0,7 -7,0 z M 140,217 l 7,0 0,7 -7,0 z M 154,217 l 7,0 0,7 -7,0 z M 175,217 l 7,0 0,7 -7,0 z M 182,217 l 7,0 0,7 -7,0 z M 196,217 l 7,0 0,7 -7,0 z M 210,217 l 7,0 0,7 -7,0 z M 7,224 l 7,0 0,7 -7,0 z M 49,224 l 7,0 0,7 -7,0 z M 63,224 l 7,0 0,7 -7,0 z M 84,224 l 7,0 0,7 -7,0 z M 98,224 l 7,0 0,7 -7,0 z M 105,224 l 7,0 0,7 -7,0 z M 140,224 l 7,0 0,7 -7,0 z M 147,224 l 7,0 0,7 -7,0 z M 154,224 l 7,0 0,7 -7,0 z M 168,224 l 7,0 0,7 -7,0 z M 203,224 l 7,0 0,7 -7,0 z M 210,224 l 7,0 0,7 -7,0 z M 217,224 l 7,0 0,7 -7,0 z M 7,231 l 7,0 0,7 -7,0 z M 14,231 l 7,0 0,7 -7,0 z M 21,231 l 7,0 0,7 -7,0 z M 28,231 l 7,0 0,7 -7,0 z M 35,231 l 7,0 0,7 -7,0 z M 42,231 l 7,0 0,7 -7,0 z M 49,231 l 7,0 0,7 -7,0 z M 77,231 l 7,0 0,7 -7,0 z M 105,231 l 7,0 0,7 -7,0 z M 112,231 l 7,0 0,7 -7,0 z M 126,231 l 7,0 0,7 -7,0 z M 133,231 l 7,0 0,7 -7,0 z M 140,231 l 7,0 0,7 -7,0 z M 161,231 l 7,0 0,7 -7,0 z M 175,231 l 7,0 0,7 -7,0 z M 182,231 l 7,0 0,7 -7,0 z M 196,231 l 7,0 0,7 -7,0 z M 217,231 l 7,0 0,7 -7,0 z M 224,231 l 7,0 0,7 -7,0 z " />
	</g>
</svg>
