<svg height="512pt" viewBox="-45 0 511 512" width="512pt" xmlns="http://www.w3.org/2000/svg"><g fill-rule="evenodd"><path d="m375.414062 387.113281h-331.179687c-23.546875 0-35.855469 35.652344-36.566406 51.695313v2.972656c.710937 15.84375 12.765625 31.117188 36.566406 31.117188h331.691406c20.90625 0 37.5-17.085938 37.5-37.945313v-85.785156c-.027343 20.859375-17.105469 37.945312-38.011719 37.945312zm0 0" fill="#eceff1"/><path d="m76.144531 407.121094 38.351563-194.355469-38.351563-204.414063c-30.492187 0-65.613281-3.6875-68.476562 39.871094v390.585938c.710937-16.042969 13.019531-31.6875 36.566406-31.6875zm0 0" fill="#fcd968"/><path d="m76.144531 8.351562v398.769532h299.269531c20.90625 0 37.984376-17.085938 38.011719-37.972656l.113281-323.25c0-20.886719-17.105468-37.945313-37.980468-37.945313zm0 0" fill="#f55a8e"/><path d="m375.925781 7.953125v399.140625c20.679688-.253906 37.472657-17.230469 37.5-37.945312l.113281-323.246094c0-20.746094-16.878906-37.75-37.613281-37.949219zm0 0" fill="#ba4583"/><path d="m44.347656 434.839844h331.179688c19.941406 0 36.394531-15.53125 37.898437-35.058594v-30.632812c-.027343 20.714843-16.820312 37.691406-37.5 37.945312-.171875 0-.339843.027344-.511719.027344h-331.179687c-23.546875 0-35.855469 15.644531-36.566406 31.683594v2.976562c.171875 4.28125 1.21875 8.53125 3.0625 12.441406 5.023437-10.878906 16.285156-19.382812 33.617187-19.382812zm0 0" fill="#c4cccf"/><path d="m321.574219 81.75h-176.441407c-6.296874 0-11.433593 5.160156-11.433593 11.449219v65.382812c0 6.289063 5.136719 11.449219 11.433593 11.449219h176.441407c6.296875 0 11.460937-5.160156 11.460937-11.449219v-65.382812c0-6.289063-5.164062-11.449219-11.460937-11.449219zm0 0" fill="#fcd968"/><path d="m199.769531 276.304688c-6.46875 0-11.773437 4.90625-11.773437 10.882812v80.601562h-15.855469c-37.730469 1.867188-38.550781 31.625-22.980469 51.636719l53.84375 69.121094c17.414063 21.195313 45.527344 21.195313 60.730469 0l53.839844-69.121094c15.574219-20.011719 14.722656-49.765625-23.003907-51.636719h-15.855468v-80.601562c0-5.976562-5.277344-10.882812-11.746094-10.882812zm0 0" fill="#8bc34a"/><path d="m252.699219 276.304688v96.355468c-.59375 17.714844 4.511719 19.132813 27.402343 18.789063 25.332032-.140625 25.785157 8.445312 1.644532 40.585937l-53.925782 71.8125c13.21875 2.410156 26.863282-2.691406 35.914063-15.304687l12.199219-15.644531 29.640625-38.058594 12-15.417969c2.976562-3.824219 5.359375-8.019531 7.007812-12.300781 6.890625-18.082032.480469-37.832032-30.011719-39.335938h-15.859374v-80.597656c0-5.980469-5.273438-10.882812-11.742188-10.882812zm0 0" fill="#689f38"/><path d="m321.574219 81.75h-23.65625v87.882812h24.082031c3.035156 0 5.816406-1.21875 7.859375-3.171874 1.957031-2.039063 3.175781-4.820313 3.175781-7.878907v-65.382812c0-6.289063-5.164062-11.449219-11.460937-11.449219zm0 0" fill="#e6a235"/></g><path d="m145.53125 177.191406h73.839844c4.175781 0 7.5625-3.382812 7.5625-7.558594 0-4.171874-3.386719-7.554687-7.5625-7.554687h-73.839844c-2.097656 0-3.871094-1.785156-3.871094-3.894531v-65.378906c0-2.109376 1.773438-3.894532 3.871094-3.894532h176.46875c2.097656 0 3.871094 1.785156 3.871094 3.894532v65.378906c0 2.113281-1.773438 3.894531-3.871094 3.894531h-67.964844c-4.179687 0-7.566406 3.382813-7.566406 7.558594 0 4.171875 3.386719 7.554687 7.566406 7.554687h67.964844c10.476562 0 18.996094-8.527344 18.996094-19.003906v-65.382812c0-10.480469-8.519532-19.007813-18.996094-19.007813h-176.46875c-10.476562 0-18.996094 8.527344-18.996094 19.007813v65.378906c0 10.480468 8.519532 19.007812 18.996094 19.007812zm0 0"/><path d="m408.175781 13.382812c-8.628906-8.628906-20.070312-13.382812-32.230469-13.382812l-299.40625.394531c-2.171874 0-4.367187-.019531-6.578124-.035156-15.113282-.136719-30.753907-.265625-43.75 5.320313-15.675782 6.734374-24.320313 20.75-25.695313 41.652343-.011719.164063-.015625.332031-.015625.496094v393.558594c0 .113281.003906.226562.007812.339843.828126 18.460938 14.988282 38.335938 44.121094 38.335938h142.179688l10.222656 13.125c.039062.050781.082031.101562.121094.152344 9.792968 11.914062 23.222656 18.660156 37.042968 18.660156.460938 0 .925782-.007812 1.390626-.023438 13.390624-.4375 25.847656-7.324218 34.207031-18.902343l10.132812-13.011719h96.394531c24.851563 0 45.066407-20.414062 45.066407-45.503906v-65.804688l.113281-323.238281c.019531-12.105469-4.714844-23.519531-13.324219-32.132813zm-339.195312 2.082032v197.046875c0 4.175781 3.382812 7.558593 7.5625 7.558593 4.179687 0 7.5625-3.382812 7.5625-7.558593v-197.011719l291.847656-.386719c8.109375 0 15.75 3.179688 21.519531 8.949219 5.75 5.757812 8.914063 13.367188 8.902344 21.4375l-.113281 323.238281c-.023438 16.765625-13.683594 30.402344-30.449219 30.402344h-41.441406c.8125-6.601563-.019532-13.003906-2.613282-18.652344-3.234374-7.039062-12.316406-19.039062-36.8125-20.25-.125-.007812-.25-.011719-.375-.011719h-8.265624v-73.039062c0-10.167969-8.671876-18.441406-19.335938-18.441406h-67.199219c-10.664062 0-19.335937 8.273437-19.335937 18.441406v73.039062h-8.296875c-.125 0-.25.003907-.375.011719-24.484375 1.214844-33.558594 13.203125-36.792969 20.238281-2.59375 5.652344-3.425781 12.058594-2.613281 18.664063h-48.25v-152.027344c0-4.171875-3.386719-7.554687-7.5625-7.554687-4.179688 0-7.566407 3.382812-7.566407 7.554687v152.027344h-24.347656c-12.296875 0-21.914062 3.605469-29 9.171875v-360.230469c2.148438-31.175781 21.679688-32.871093 53.351563-32.617187zm106.042969 449.480468h-130.394532c-20.519531 0-28.4375-12.75-29-23.742187v-2.617187c.609375-12.136719 9.792969-24.332032 29-24.332032h92.398438c1.660156 3.351563 3.703125 6.648438 6.164062 9.808594l31.847656 40.886719zm82.742187 18.957032c-.0625.078125-.121094.160156-.179687.238281-5.679688 7.921875-13.667969 12.441406-22.496094 12.730469-9.539063.296875-19.078125-4.441406-26.183594-13.050782l-53.773438-69.039062c-2.570312-3.300781-4.535156-6.789062-5.875-10.25-.101562-.332031-.226562-.652344-.367187-.964844-2.164063-6.128906-2.316406-12.117187-.171875-16.785156 3.960938-8.625 14.984375-10.984375 23.609375-11.4375h15.667969c4.175781 0 7.5625-3.382812 7.5625-7.558594v-80.597656c0-1.773438 1.96875-3.328125 4.210937-3.328125h67.199219c2.242188 0 4.210938 1.554687 4.210938 3.328125v80.597656c0 4.175782 3.382812 7.558594 7.5625 7.558594h15.636718c8.632813.453125 19.664063 2.816406 23.628906 11.449219 2.144532 4.675781 1.996094 10.667969-.171874 16.796875-.136719.296875-.253907.601562-.351563.917968-1.339844 3.46875-3.304687 6.964844-5.878906 10.269532zm118.558594-18.957032h-84.613281l-.011719.003907 31.847656-40.886719c2.460937-3.160156 4.503906-6.457031 6.160156-9.808594h46.105469c11.691406 0 22.371094-4.429687 30.449219-11.699218v32.003906c0 16.753906-13.429688 30.386718-29.9375 30.386718zm0 0"/></svg>