<svg height="512" viewBox="0 0 60 60" width="512" xmlns="http://www.w3.org/2000/svg"><g id="Page-1" fill="none" fill-rule="evenodd"><g id="043---Owl-Book" fill-rule="nonzero" transform="translate(-1 -1)"><g id="Icons" transform="translate(1 1)"><path id="Shape" d="m59 57c0 1.1045695-.8954305 2-2 2h-45.69c-5.33666398.0841197-9.83402235-3.9639391-10.31-9.28-.20029669-2.7745479.76416646-5.5071406 2.66167679-7.5412717 1.89751033-2.034131 4.55656432-3.1859487 7.33832321-3.1787283h6v4h-6c-3.25221708-.0011565-5.91327441 2.5889393-6 5.84.02751205 3.4258021 2.82415921 6.1821775 6.25 6.16h45.75c1.1045695 0 2 .8954305 2 2z" fill="#9d27b0"/><path id="Shape" d="m57 55h-3c1.1045695 0 2 .8954305 2 2s-.8954305 2-2 2h3c1.1045695 0 2-.8954305 2-2s-.8954305-2-2-2z" fill="#6a1b9a"/><path id="Shape" d="m59 41c0 1.1045695-.8954305 2-2 2h-14v-4h14c1.1045695 0 2 .8954305 2 2z" fill="#9d27b0"/><path id="Shape" d="m57 39h-3c1.1045695 0 2 .8954305 2 2s-.8954305 2-2 2h3c1.1045695 0 2-.8954305 2-2s-.8954305-2-2-2z" fill="#6a1b9a"/><path id="Shape" d="m54 49c-.0236277 2.0628872.3887037 4.1075058 1.21 6h-44c-3.41025659.0001105-6.18254222-2.7498539-6.21-6.16.08672559-3.2510607 2.74778292-5.8411565 6-5.84h6c0 1.1045695.8954305 2 2 2s2-.8954305 2-2c0 1.1045695.8954305 2 2 2s2-.8954305 2-2h10c0 1.1045695.8954305 2 2 2s2-.8954305 2-2c0 1.1045695.8954305 2 2 2s2-.8954305 2-2l12.21-.0000004c-.8212963 1.8924946-1.2336277 3.9371132-1.21 6.0000004z" fill="#ffeb3a"/><path id="Shape" d="m55.21 43h-3c-1.6134501 3.8372987-1.6134501 8.1627013 0 12h3c-1.6134501-3.8372987-1.6134501-8.1627013 0-12z" fill="#fdd834"/><path id="Shape" d="m30 13.9v.1c.0276466 4.0791862-3.0183668 7.5258774-7.07 8-.31 0-.62.05-.93.05-4.3636086-.0057346-7.917682-3.5072402-7.9884348-7.8702789-.0707528-4.36303871 3.3679181-7.97794149 7.7290463-8.12515995 4.3611282-.14721847 8.0357496 3.22756112 8.2593885 7.58543885z" fill="#f5f5f5"/><path id="Shape" d="m46 14c0 4.418278-3.581722 8-8 8-.31 0-.62 0-.93-.05-4.0325972-.4719889-7.0721519-3.8898757-7.07-7.95v-.1c0-.1 0-.21 0-.31.1132184-4.418278 3.786722-7.90821837 8.205-7.795s7.9082184 3.786722 7.795 8.205z" fill="#f5f5f5"/><path id="Shape" d="m45.07 10.26c-1.3855951-2.62001399-4.1061602-4.25927953-7.07-4.26-.517033-.00109846-1.0328973.04914807-1.54.15 3.7550343.72253444 6.4737167 4.0014297 6.4883303 7.8253185.0146136 3.8238887-2.6789281 7.1234677-6.4283303 7.8746815.1812628.0438583.3648999.0772469.55.1.31 0 .62.05.93.05 2.804771-.0006817 5.4043404-1.4701587 6.8512939-3.8728792 1.4469535-2.4027206 1.5299366-5.3877227.2187061-7.8671208z" fill="#cfd8dc"/><circle id="Oval" cx="23" cy="14" fill="#607d8b" r="2"/><circle id="Oval" cx="37" cy="14" fill="#607d8b" r="2"/><path id="Shape" d="m23.93 37.23c-.2858978-.1532075-.605647-.2322852-.93-.23-.6068554.0003792-1.1807154.2762735-1.56.75-2.7478936-1.6148895-4.4367132-4.5627164-4.44-7.75v-9.76c1.4182316 1.137822 3.1817543 1.758582 5 1.76.31 0 .62 0 .93-.05-.7424036 2.2724733-1.057716 4.662745-.93 7.05-.0092624 2.856531.651783 5.6753931 1.93 8.23z" fill="#825a2c"/><path id="Shape" d="m43 20.24v9.76c-.0032868 3.1872836-1.6921064 6.1351105-4.44 7.75l-.15-.16c-.6175698-.6183653-1.5651214-.7641424-2.34-.36 1.278217-2.5546069 1.9392624-5.373469 1.93-8.23.1215304-2.3706068-.193707-4.7433612-.93-7 .31 0 .62.05.93.05 1.8242931-.0155719 3.5884682-.6542033 5-1.81z" fill="#825a2c"/><path id="Shape" d="m40 21.74v8.26c-.0186903 2.7314193-1.2768228 5.3065443-3.42 7 .139551-.0158571.280449-.0158571.42 0 .5295768.0022328 1.0366497.2144122 1.41.59l.15.16c2.7478936-1.6148895 4.4367132-4.5627164 4.44-7.75v-9.76c-.8802558.7102928-1.9036123 1.2219711-3 1.5z" fill="#624421"/><path id="Shape" d="m30 13.59c-.185551-3.59407804-2.7481685-6.62186011-6.2621551-7.39885714s-7.1142665.88807265-8.7978449 4.06885714c-1.9803092-1.13745702-3.4052301-3.03976259-3.94-5.26 1.46-2.19 4.31-3.26 6.8-3.64 2.2359648-.37090645 4.5278581-.20989152 6.69.47.2682824.08929338.5290934.19963647.78.33 1.4063292.75738527 2.52134 1.96033073 3.17 3.42 1.0736544 2.53176476 1.6050656 5.2603572 1.56 8.01z" fill="#a0522d"/><path id="Shape" d="m49 5c-.5324057 2.21847524-1.9534893 4.12048533-3.93 5.26-1.6789866-3.19094794-5.2850987-4.86437395-8.8058781-4.08639149-3.5207795.77798246-6.0860121 3.81508315-6.2641219 7.41639149-.0468271-2.7455746.4811444-5.47058887 1.55-8 .64866-1.45966927 1.7636708-2.66261473 3.17-3.42.2509066-.13036353.5117176-.24070662.78-.33 2.1621419-.67989152 4.4540352-.84090645 6.69-.47 2.5.37 5.35 1.44 6.81 3.63z" fill="#a0522d"/><path id="Shape" d="m42.2 1.36c-1.2939293-.19644231-2.607073-.23338497-3.91-.11.3 0 .61.06.91.11 2.49.38 5.34 1.45 6.8 3.64-.3491231 1.39507242-1.0359565 2.68288513-2 3.75.4133415.45842053.7692968.965489 1.06 1.51 1.9803092-1.13745702 3.4052301-3.03976259 3.94-5.26-1.46-2.19-4.31-3.26-6.8-3.64z" fill="#783e22"/><path id="Shape" d="m34.73 2.16c-1.4063292.75738527-2.52134 1.96033073-3.17 3.42-1.0688556 2.52941113-1.5968271 5.2544254-1.55 8v.31c0-.1 0-.21 0-.31.0468271-2.7455746-.4811444-5.47058887-1.55-8-.64866-1.45966927-1.7636708-2.66261473-3.17-3.42 1.4342462-.81044568 3.0634239-1.21168691 4.71-1.16 1.6533109-.05537838 3.289902.34598433 4.73 1.16z" fill="#825a2c"/><path id="Shape" d="m21 39v4c0 1.1045695-.8954305 2-2 2s-2-.8954305-2-2v-4c0-1.1045695.8954305-2 2-2s2 .8954305 2 2z" fill="#ffdc00"/><path id="Shape" d="m25 38.94v4.06c0 1.1045695-.8954305 2-2 2s-2-.8954305-2-2v-4c.0003545-.4545614.1555445-.8954421.44-1.25.3792846-.4737265.9531446-.7496208 1.56-.75.324353-.0022852.6441022.0767925.93.23.1781484.0936756.3401898.2152067.48.36.3612859.3585296.5722824.8413183.59 1.35z" fill="#ffdc00"/><path id="Rectangle-path" d="m25 39h10v4h-10z" fill="#9d27b0"/><g fill="#ffdc00"><path id="Shape" d="m39 39v4c0 1.1045695-.8954305 2-2 2s-2-.8954305-2-2v-4.06c.02205-.721295.4309547-1.3747781 1.07-1.71.7748786-.4041424 1.7224302-.2583653 2.34.36l.15.16c.2844555.3545579.4396455.7954386.44 1.25z"/><path id="Shape" d="m43 39v4c0 1.1045695-.8954305 2-2 2s-2-.8954305-2-2v-4c0-1.1045695.8954305-2 2-2s2 .8954305 2 2z"/><path id="Shape" d="m33.72 20.76c-.61 1.61-2.16 5.24-3.72 5.24s-3.11-3.63-3.72-5.24c2.3165319-1.4669367 3.7204056-4.0180622 3.72-6.76-.0004056 2.7419378 1.4034681 5.2930633 3.72 6.76z"/></g><path id="Shape" d="m38 29c.0092624 2.856531-.651783 5.6753931-1.93 8.23-.6390453.3352219-1.04795.988705-1.07 1.71-.3318124.040214-.6657597.0602509-1 .06h-8c-.3342403.0002509-.6681876-.019786-1-.06-.0177176-.5086817-.2287141-.9914704-.59-1.35-.1398102-.1447933-.3018516-.2663244-.48-.36-1.278217-2.5546069-1.9392624-5.373469-1.93-8.23-.1215304-2.3706068.193707-4.7433612.93-7 1.1913188-.1423849 2.3358225-.5489399 3.35-1.19.61 1.56 2.16 5.19 3.72 5.19s3.11-3.63 3.72-5.24c1.009865.6586942 2.1546431 1.082433 3.35 1.24.736293 2.2566388 1.0515304 4.6293932.93 7z" fill="#ff9801"/></g><g id="Icons_copy" fill="#000"><path id="Shape" d="m56.9 45h1.1c1.6568542 0 3-1.3431458 3-3s-1.3431458-3-3-3h-13.18c-.33207-.901278-1.0756177-1.5890596-2-1.85 1.393846-1.7485979 2.161391-3.9139197 2.18-6.15v-9.31c2.807831-2.5080829 3.7434551-6.5064761 2.34-10 1.8426268-1.328277 3.1426008-3.27823795 3.66-5.49.0513593-.25999962-.0025915-.52975394-.15-.75-1.91-2.84-5.52-3.78-7.5-4.08-2.39352-.39636679-4.8468254-.22162018-7.16.51l-.4.16c-1.4933641-.71649112-3.1339727-1.07269841-4.79-1.04-1.6528393-.04517787-3.2932945.29729712-4.79 1l-.4-.16c-2.316366-.71825405-4.7696192-.87929162-7.16-.47-2 .3-5.59 1.24-7.48 4.08-.1543724.21734568-.2155698.48733411-.17.75.5232541 2.19049337 1.8147749 4.1206784 3.64 5.44-1.4224083 3.5116378-.4767894 7.538532 2.36 10.05v9.31c.0043609 2.2301603.7540878 4.3948647 2.13 6.15-.9053514.2746838-1.6280793.9603487-1.95 1.85h-5.18c-3.05956099-.0079013-5.98418085 1.2588268-8.07137645 3.495921s-3.14836659 5.2424091-2.92862355 8.294079c.51287615 5.8408278 5.44731917 10.2953515 11.31 10.21h45.69c1.6568542 0 3-1.3431458 3-3s-1.3431458-3-3-3h-1.1c-1.1999008-3.2253512-1.1999008-6.7746488 0-10zm2.1-3c-.0037358.2687063-.1154643.5246007-.31.71-.1792338.1890372-.4295353.2942364-.69.29h-13v-2h13c.5522847 0 1 .4477153 1 1zm-16 2c0 .5522847-.4477153 1-1 1s-1-.4477153-1-1v-4c0-.5522847.4477153-1 1-1s1 .4477153 1 1zm-16-1v-2h8v2zm-4-3c0-.5522847.4477153-1 1-1s1 .4477153 1 1v4c0 .5522847-.4477153 1-1 1s-1-.4477153-1-1zm3.76-16.84c2.04 4.84 3.68 4.84 4.24 4.84s2.2 0 4.24-4.84c.6615485.3143136 1.3605392.5428299 2.08.68.5318275 2.0080754.7610181 4.0842728.68 6.16.0067945 2.6102271-.5778374 5.1880775-1.71 7.54-.5096203.3603851-.8941432.8707519-1.1 1.46h-8.38c-.2076695-.5855794-.5920292-1.0922354-1.1-1.45-1.133637-2.3549622-1.7183068-4.9363989-1.71-7.55-.0810181-2.0757272.1481725-4.1519246.68-6.16.7194608-.1371701 1.4184515-.3656864 2.08-.68zm1.74-1.05c1.04061-.8073045 1.893581-1.8308697 2.5-3 .606419 1.1691303 1.45939 2.1926955 2.5 3-1.18 2.89-2.2 3.89-2.5 3.89s-1.32-1-2.5-3.89zm8.5 17.89c0-.5522847.4477153-1 1-1s1 .4477153 1 1v4c0 .5522847-.4477153 1-1 1s-1-.4477153-1-1zm6-9c-.0086906 2.5783925-1.2595767 4.9945385-3.36 6.49-.3057637-.1960785-.6445945-.3349991-1-.41.8887729-2.2551521 1.3499626-4.6560513 1.36-7.08.0526532-2.015155-.1353424-4.0293941-.56-6 1.2399423-.0648722 2.4525921-.3884725 3.56-.95zm-4-9c-3.8659932 0-7-3.1340068-7-7s3.1340068-7 7-7 7 3.1340068 7 7-3.1340068 7-7 7zm4-18.65c1.26.19 4.25.85 5.86 2.85-.4427901 1.45328243-1.322729 2.73478077-2.52 3.67-1.4822444-2.12935193-3.811299-3.51546322-6.3897905-3.80281368-2.5784914-.28735045-5.1555562.55201648-7.0702095 2.30281368.1702836-.46758252.3672745-.92500197.59-1.37.6295115-1.48974002 1.8448326-2.65442271 3.36-3.22 2.0098315-.63490485 4.1419212-.78230012 6.22-.43zm-12-.35c.9094741-.00182845 1.8147933.12269501 2.69.37-.8463628.78704739-1.5264189 1.73572563-2 2.79-.261974.54974332-.4923488 1.11399472-.69 1.69-.1802606-.57666874-.3973741-1.14116407-.65-1.69-.4761386-1.05280087-1.1558539-2.00100376-2-2.79.8623147-.2436625 1.7539226-.36815115 2.65-.37zm-17.91 3.2c1.61-2 4.6-2.66 5.86-2.85 2.0780788-.35230012 4.2101685-.20490485 6.22.43 1.5151674.56557729 2.7304885 1.73025998 3.36 3.22.2057408.44609686.38603.90349716.54 1.37-1.9146533-1.7507972-4.4917181-2.59016413-7.0702095-2.30281368-2.5784915.28735046-4.9075461 1.67346175-6.3897905 3.80281368-1.1925491-.93965036-2.0713785-2.2195329-2.52-3.67zm2.91 8.8c0-3.8659932 3.1340068-7 7-7s7 3.1340068 7 7-3.1340068 7-7 7-7-3.1340068-7-7zm3 8.05c1.1089317.5545917 2.3215079.8713602 3.56.93-.4262456 1.9771271-.6142502 3.9981756-.56 6.02.0004773 2.4220541.4514815 4.8228887 1.33 7.08-.3554055.0750009-.6942363.2139215-1 .41-2.0890713-1.5019637-3.3282411-3.9170424-3.33-6.49zm1 16c.5522847 0 1 .4477153 1 1v4c0 .5522847-.4477153 1-1 1s-1-.4477153-1-1v-4.05c0-.5522847.4477153-1 1-1zm39 18.95c-.0037358.2687063-.1154643.5246007-.31.71-.1792338.1890372-.4295353.2942364-.69.29h-45.69c-4.8143151.0927251-8.88030721-3.5540025-9.31-8.35-.18085049-2.4974259.68690472-4.9572964 2.39472981-6.7884644 1.70782508-1.831168 4.10131332-2.8680752 6.60527019-2.8615356h5v2h-5c-3.79677603-.0012555-6.90236882 3.0244792-7 6.82-.0462457 1.8702396.67669134 3.6775822 2 5 1.38996321 1.3966609 3.2795539 2.181291 5.25 2.18h45.75c.5522847 0 1 .4477153 1 1zm-46.75-3c-1.4436546-.0074535-2.82374103-.594801-3.83-1.63-.92977458-.9249019-1.44252958-2.1887347-1.42-3.5.07049734-2.7105256 2.28855793-4.8709166 5-4.87h5.18c.4227483 1.1957287 1.5517451 1.9964356 2.82 2 .7400546-.0044106 1.452363-.2822109 2-.78.547637.4977891 1.2599454.7755894 2 .78 1.2682549-.0035644 2.3972517-.8042713 2.82-2h8.36c.4227483 1.1957287 1.5517451 1.9964356 2.82 2 .7400546-.0044106 1.452363-.2822109 2-.78.547637.4977891 1.2599454.7755894 2 .78 1.2682549-.0035644 2.3972517-.8042713 2.82-2l9.94-.0000003c-1.0131674 3.2563455-1.0131674 6.7436551 0 10.0000003z"/><path id="Shape" d="m50 49h-24c-.5522847 0-1 .4477153-1 1s.4477153 1 1 1h24c.5522847 0 1-.4477153 1-1s-.4477153-1-1-1z"/><path id="Shape" d="m22 49h-10c-.5522847 0-1 .4477153-1 1s.4477153 1 1 1h10c.5522847 0 1-.4477153 1-1s-.4477153-1-1-1z"/><path id="Shape" d="m24 18c1.6568542 0 3-1.3431458 3-3s-1.3431458-3-3-3-3 1.3431458-3 3 1.3431458 3 3 3zm0-4c.5522847 0 1 .4477153 1 1s-.4477153 1-1 1-1-.4477153-1-1 .4477153-1 1-1z"/><path id="Shape" d="m38 12c-1.6568542 0-3 1.3431458-3 3s1.3431458 3 3 3 3-1.3431458 3-3-1.3431458-3-3-3zm0 4c-.5522847 0-1-.4477153-1-1s.4477153-1 1-1 1 .4477153 1 1-.4477153 1-1 1z"/></g></g></g></svg>