<?xml version="1.0" encoding="UTF-8"?>
<svg width="32mm" height="30mm" version="1.1" viewBox="0 0 113.38582 106.29921" xmlns="http://www.w3.org/2000/svg" xmlns:xlink="http://www.w3.org/1999/xlink">
 <defs>
  <pattern id="f" xlink:href="#d" patternTransform="matrix(1.35 0 0 1.4125 -1.7717 -7.4549)"/>
  <pattern id="d" width="10" height="10" patternTransform="translate(0) scale(10)" patternUnits="userSpaceOnUse">
   <circle cx="2.567" cy=".81" r=".45"/>
   <circle cx="3.048" cy="2.33" r=".45"/>
   <circle cx="4.418" cy="2.415" r=".45"/>
   <circle cx="1.844" cy="3.029" r=".45"/>
   <circle cx="6.08" cy="1.363" r=".45"/>
   <circle cx="5.819" cy="4.413" r=".45"/>
   <circle cx="4.305" cy="4.048" r=".45"/>
   <circle cx="5.541" cy="3.045" r=".45"/>
   <circle cx="4.785" cy="5.527" r=".45"/>
   <circle cx="2.667" cy="5.184" r=".45"/>
   <circle cx="7.965" cy="1.448" r=".45"/>
   <circle cx="7.047" cy="5.049" r=".45"/>
   <circle cx="4.34" cy=".895" r=".45"/>
   <circle cx="7.125" cy=".34" r=".45"/>
   <circle cx="9.553" cy="1.049" r=".45"/>
   <circle cx="7.006" cy="2.689" r=".45"/>
   <circle cx="8.909" cy="2.689" r=".45"/>
   <circle cx="9.315" cy="4.407" r=".45"/>
   <circle cx="7.82" cy="3.87" r=".45"/>
   <circle cx="8.27" cy="5.948" r=".45"/>
   <circle cx="7.973" cy="7.428" r=".45"/>
   <circle cx="9.342" cy="8.072" r=".45"/>
   <circle cx="8.206" cy="9.315" r=".45"/>
   <circle cx="9.682" cy="9.475" r=".45"/>
   <circle cx="9.688" cy="6.186" r=".45"/>
   <circle cx="3.379" cy="6.296" r=".45"/>
   <circle cx="2.871" cy="8.204" r=".45"/>
   <circle cx="4.59" cy="8.719" r=".45"/>
   <circle cx="3.181" cy="9.671" r=".45"/>
   <circle cx="5.734" cy="7.315" r=".45"/>
   <circle cx="6.707" cy="6.513" r=".45"/>
   <circle cx="5.73" cy="9.67" r=".45"/>
   <circle cx="6.535" cy="8.373" r=".45"/>
   <circle cx="4.37" cy="7.154" r=".45"/>
   <circle cx=".622" cy="7.25" r=".45"/>
   <circle cx=".831" cy="5.679" r=".45"/>
   <circle cx="1.257" cy="8.519" r=".45"/>
   <circle cx="1.989" cy="6.877" r=".45"/>
   <circle cx=".374" cy="3.181" r=".45"/>
   <circle cx="1.166" cy="1.664" r=".45"/>
   <circle cx="1.151" cy=".093" r=".45"/>
   <circle cx="1.151" cy="10.093" r=".45"/>
   <circle cx="1.302" cy="4.451" r=".45"/>
   <circle cx="3.047" cy="3.763" r=".45"/>
  </pattern>
  <linearGradient id="e" x1="14.774" x2="29.705" y1="61.728" y2="46.978" gradientUnits="userSpaceOnUse">
   <stop stop-color="#183767" offset="0"/>
   <stop stop-color="#093679" offset=".15297"/>
   <stop stop-color="#04a" offset=".41919"/>
   <stop stop-color="#04a" offset=".55849"/>
   <stop stop-color="#2a5fae" offset=".65319"/>
   <stop stop-color="#04a" offset=".75364"/>
   <stop stop-color="#094297" offset="1"/>
  </linearGradient>
 </defs>
 <g transform="translate(4.4002 9.8945)" fill-rule="evenodd">
  <path d="m1.1033 48.094c-3.2481-5.7111-3.3868-9.5563-2.625-13.25 0.81789-3.9656-0.17411-8.073 7.875-11 1.3247-1.5382 3.3506-2.876 7-3.75l43.811-18.957 44.564 33.957-7.625 4 9.5 8.25-4.125 1.25 4.375 4.75-3.375 0.75 4.875 5.5-2.125 1.125c0.79652 0.75456 1.7181 1.4734 0.25 2.875 0.31096 2.3154-0.78964 3.5016-2.125 4.5 1.2537 2.2941 0.28994 3.11-0.375 4.125 0.20953 0.75347 0.59789 1.4954-1.125 3.875l5.375 6.5-2.125 1.125-64.625 0.625c-1.5836 0.16804-2.8694-1.1529-4.125-2.625z" fill="#04a" stroke="#f00" stroke-width=".29055"/>
  <path d="m6.2248 24.03s-5.7996 1.7757-7.25 10c-0.80719 4.577 1.375 13.875 1.375 13.875l36.75 36.5 1.875-1.25s-4.2392-7.1915-4-11.125c0.51218-8.4213 7-12.625 7-12.625z" fill="url(#e)" stroke="#fc0" stroke-width=".29055"/>
  <path d="m93.975 39.03-50.312 20.25s-4.9849 7.9845-5.3125 12.5c-0.24318 3.3516 2.5625 9.75 2.5625 9.75l29.375 0.125h31.125l0.9375-1.25-3.0625-5.1875c0.83569-0.94674 2.1774-1.2967 1.75-2.875l0.5625-4.5625c1.3829-0.75152 1.8197-2.5674 1.875-4.8125 0.85786-0.70833 0.22406-1.4167 0.1875-2.125l1.875-1.375-4.4375-5.125 2.75-1.1875-3.5-4.25 3.5-1.5625z" fill="#f4eed7" stroke="#f60" stroke-width=".29055"/>
  <path d="m6.4783 24.469c0.89769-1.7285 2.3787-3.2627 6.25-4l43.655-19.436 45.595 34.186-31.625 13.875-28.625 10.625s-6.7552 3.311-6.75 11.5c0.0044 6.9216 3.875 13.125 3.875 13.125-1.5482-0.497-3.1004-1.0006-5.625-3.125l-32.5-33s-3.2529-11.522-1.25-16.75c3.1484-8.2186 7-7 7-7z" fill="url(#f)" opacity=".296" stroke="#00f" stroke-width=".29055"/>
  <path d="m96.014 39.23c-17.728 7.3833-35.252 13.865-53.197 21.17 0 0-1.1574 1.2041-2.419 3.1983s-3.0139 4.9834-3.0352 9.5742c-0.01832 3.9517 1.1094 6.44 2.2285 7.7656 0.55954 0.66283 1.0583 0.97145 1.7891 1.2588 1.5267-0.0021 59.219-0.08938 59.219-0.08938 0.39688-0.01757 1.5858 0.47957 2.2793-0.1147 0.69355-0.59426 0.60999-1.3601 0.43359-2.1289l-2.4531-4.3594c0.367-0.43431 0.76091-0.8473 0.98828-1.4121 0.25718-0.63886 0.24235-1.4105 0.0176-2.1816 0.52914-0.6326 0.83351-1.3769 0.76953-2.0762-0.0516-0.56401-0.30079-1.0324-0.50391-1.5254 0.7005-0.3195 1.3087-0.78473 1.625-1.4746 0.4222-0.92082 0.49516-2.0414 0.41797-3.3066 0.46109-0.52174 0.78318-0.65494 0.80274-1.2188 0.0217-0.62614-0.3794-0.93282-0.50196-1.1641l1.6152-1.0273c0.49368-0.35477 0.46794-0.70968 0.11328-1.0645l-3.7988-4.2871 1.918-0.55273c0.59072-0.13065 0.54468-0.85957 0.16406-1.6152l-3.1348-3.4551 2.834-0.72852c0.92719-0.35558 0.98727-0.88458 0.32227-1.5586-2.849-2.4389-5.9669-4.8997-8.4937-7.626zm-1.4576 1.2616c1.8298 1.669 4.8183 4.4746 7.5255 6.6339-0.21969 0.64727-1.1318 0.80724-2.5684 1.2129-9.183 2.593-17.64 4.7619-26.764 6.8242-6.0617 1.3702-17.231 2.7145-22.724 3.686 14.317-5.5851 30.252-11.436 44.53-18.357zm4.8927 9.2101 2.9961 3.2109-2.582 1.1309c-0.78418 0.34345-20.257 3.9981-30.459 5.1934-7.0692 0.8282-19.008 1.6164-23.291 1.918 0.35791-0.24284 2.0144-1.4082 2.5801-1.4434 2.0926-0.29546 16.388-2.027 24.428-3.7012 8.3148-1.7314 23.184-5.4363 26.328-6.3086zm1.0957 5.6387 3.5605 4.0137-1.0488 0.51172c-5.9735 0.92555-13.579 1.1181-21.081 1.4221-11.524 0.46699-31.291 0.62949-33.153 0.43923 5.2945-0.25941 17.885-1.1957 21.967-1.6738 9.9748-1.1685 27.423-4.2714 29.756-4.7129zm2.0684 6.2676c0.52105-0.07236 0.68663 0.31657 0.46289 0.54883-0.13547 0.35894-0.38031 0.54628-0.66993 1.168 0.10705 1.2613-0.0101 2.2228-0.26171 2.7715-0.25159 0.54866-0.69661 1.1942-1.3008 1.2539-0.60418 0.05971-16.363 0.18647-24.539 0.39844-6.8609 0.17789-20.565-0.204-20.57 0.28711-0.0057 0.4911 13.667 0.49772 20.445 0.60352 8.0379 0.12545 23.006 0.02438 24.256 0.01563 0.22181 0.51778 0.4042 0.99912 0.43555 1.3418 0.0336 0.36644 5e-3 1.0097-0.26563 1.2695-0.33386-0.02257-4.5436-0.74445-6.7852-0.74219-8.8679 9e-3 -18.308 1.848-27.172 2.1016-8.5894 0.24568-25.13-1.0272-25.18-0.58789-0.04983 0.43934 17.183 1.4645 25.797 1.5137 8.8685 0.05067 17.708-1.7804 26.576-1.8867 2.1022-0.02521 5.9105 0.70095 6.4102 0.75586 0.12847 0.38407 0.091 0.66753-0.0469 1.0098-0.17217 0.4277-0.56502 0.92693-1.0566 1.457-0.50544 0.30618-0.54758 0.66383-0.0977 1.0762l2.457 3.8711c0.10793 0.71791 0.0207 0.98869-0.0996 1.0918-0.13047 0.11179-0.56676 0.23642-1.1914 0.26758l-57.787-0.52344c-0.28275-0.13157-0.6426-0.38456-1.0195-0.81055 0.40902 0.02641 0.87366 0.04447 1.1914 0.01172 1.2449-0.12833 3.9571-0.68355 3.2969-1.3438 0 0-2.1942 0.25532-3.2969 0.2793-0.48658 0.01058-1.3842-0.04796-1.9492-0.08789-0.22088-0.44502-0.42719-0.98345-0.59375-1.6348 0.3468 0.04452 0.68022 0.06964 0.99414 0.07031 0.65886 0.0014 2.8067-0.34044 2.7188-0.73438-0.4415-0.30554-2.0667-0.30267-2.6758-0.28711-0.4177 0.01068-0.83621-0.03564-1.2539-0.12109-0.11932-0.76473-0.19424-1.6399-0.18945-2.6719 0.0071-1.5332-0.0335-3.2338 0.28711-3.8027 0.58577-0.21534 0.95766-0.22752 1.3984-0.18555 0.91892 0.0875 3.8496 0.01762 3.4648-0.75195 0 0-2.2764-0.07026-3.1309-0.08984-0.39006-0.0089-1.0869-0.25006-1.416-0.2793 0.4097-1.5898 0.98903-2.8181 1.6387-3.6855 0.63059-0.84202 0.59328-1.0552 2.1562-2.2715 6.783 0.15353 22.352 0.27298 37.673 0.01167 7.3532-0.12542 14.649-0.33854 20.889-0.67769z" color="#000000" color-rendering="auto" fill="#786721" image-rendering="auto" shape-rendering="auto" solid-color="#000000" style="block-progression:tb;isolation:auto;mix-blend-mode:normal;text-decoration-color:#000000;text-decoration-line:none;text-decoration-style:solid;text-indent:0;text-transform:none;white-space:normal"/>
  <path d="m80.836 75.944c-5.3914 0.02679-16.223-0.08729-16.171 0.33008 0.05244 0.41737 10.778 0.75469 16.175 0.73242 5.5391-0.02286 16.697-0.81309 16.634-1.4859-0.06343-0.67276-11.105 0.39586-16.637 0.42335z" color="#000000" color-rendering="auto" fill="#504416" image-rendering="auto" shape-rendering="auto" solid-color="#000000" style="block-progression:tb;isolation:auto;mix-blend-mode:normal;text-decoration-color:#000000;text-decoration-line:none;text-decoration-style:solid;text-indent:0;text-transform:none;white-space:normal"/>
  <path d="m85.205 78.738c-3.8074 0.17654-7.3741 0.57491-10.303 0.7073-1.4645 0.06619-2.968 0.12157-3.8648 0.16016-0.89681 0.03859-2.4824 0.10474-2.4914 0.37083-9e-3 0.26608 1.8149 0.46321 2.7131 0.42456s2.4037-0.0478 3.8687-0.11401c2.9299-0.13242 6.3189-0.75172 10.126-0.92827 7.6151-0.35309 15.122 0.23002 15.107 1.31e-4 -0.0145-0.22989-7.5416-0.97376-15.156-0.62069z" color="#000000" color-rendering="auto" fill="#504416" image-rendering="auto" shape-rendering="auto" solid-color="#000000" style="block-progression:tb;isolation:auto;mix-blend-mode:normal;text-decoration-color:#000000;text-decoration-line:none;text-decoration-style:solid;text-indent:0;text-transform:none;white-space:normal"/>
  <path d="m42.595 64.661s6.6527 0.73297 10.016 0.75287c1.2329 0.0073 4.8131 0.19704 4.7571-0.36381-0.06848-0.68574-3.2208-0.47261-4.6328-0.45768-3.3754 0.03569-10.141 0.06862-10.141 0.06862z" color="#000000" color-rendering="auto" fill="#504416" image-rendering="auto" shape-rendering="auto" solid-color="#000000" style="block-progression:tb;isolation:auto;mix-blend-mode:normal;text-decoration-color:#000000;text-decoration-line:none;text-decoration-style:solid;text-indent:0;text-transform:none;white-space:normal"/>
  <path d="m96.6 62.868c-4.4306 0.13666-10.319 0.64998-16.164 0.80398-10.774 0.28384-21.307 0.20593-21.626 0.36169 0.15194 0.34 10.918 0.56344 21.869 0.42033 5.7651-0.07534 11.581-0.51128 15.926-0.52309 1.654-0.0045 4.3018-0.09726 4.7501-0.63959-0.18624-0.54998-2.9261-0.47974-4.7551-0.42332z" color="#000000" color-rendering="auto" fill="#504416" image-rendering="auto" shape-rendering="auto" solid-color="#000000" style="block-progression:tb;isolation:auto;mix-blend-mode:normal;text-decoration-color:#000000;text-decoration-line:none;text-decoration-style:solid;text-indent:0;text-transform:none;white-space:normal"/>
  <path d="m56.211-0.13374c-0.93061-0.00547-4.042 1.4046-6.6136 2.4821-14.587 6.1117-26.28 13.046-40.433 17.917-0.88046 0.30308-1.9309 1.0647-3.3203 2.5293-0.78607 0.0095-1.619 0.24374-2.5391 0.73242-1.6483 0.87547-2.8462 2.4319-3.6582 3.8711-1.278 2.2653-2.3422 5.5779-2.2715 9.9805 0.12131 7.553 2.6256 11.041 3.0977 11.918 0.44407 0.82516 33.445 33.783 34.264 34.424 0.74171 0.58037 1.8188 1.1485 2.7793 1.418 0.73016 0.20486 3.4539 0.26959 3.7246 0.26758l63.641-0.47266c1.8197-1.2821 0.97288-3.2707-0.0332-4.5234l-4.1484-5.166-0.59179 0.33984c0.62919 1.428 1.877 2.6299 2.3809 4.1035 0.21809 0.6379 0.72886 1.3082 0.23828 1.9375-0.48402 0.62092-1.035 0.85883-2.0195 0.87845-7.8892 0.15717-41.604 0.52044-60.045 0.74077-1.3966-1.4085-3.6986-5.4311-3.7437-10.748-0.06443-7.5974 4.9887-11.381 5.1855-11.459 11.24-4.4429 19.065-7.5599 30.156-11.785 8.609-3.2797 16.222-6.7592 26.934-11.17 1.7559-0.72306 3.1976-1.1831 3.7739-2.0007 0.7861-1.1154-1.896-2.7143-3.0318-3.5625-9.7771-7.3012-25.597-20.211-35.492-27.596-3.0532-2.2787-4.2414-3.0603-5.6057-4.226-0.52708-0.45034-1.9846-0.82689-2.6268-0.83067zm0.33594 2.457c1.0035 0.03286 1.7502 0.56773 2.0938 0.80273 1.1133 0.76163 0.78868 0.74546 3.8828 3.0547 9.5644 7.1381 27.492 20.823 37.215 28.476-9.7606 4.4409-19.896 8.6008-27.645 11.553-10.601 4.0387-17.126 6.6261-22.953 8.875l-35.076-33.873c14.458-5.1789 23.906-11.721 36.86-17.132 2.2178-0.9264 5.2881-1.7675 5.6225-1.7565zm-44.365 19.539 35.145 33.939c-2.3819 0.93306-4.059 1.6464-5.3633 2.3223l-34.323-33.862c0.75783-0.8483 1.5366-1.2552 1.966-1.3932 0.70356-0.22611 1.8785-0.77241 2.5754-1.006zm-5.752 3.6735c11.333 11.117 22.644 22.339 33.949 33.514-0.58756 0.39254-1.1036 0.7985-1.5879 1.2559-2.8858 2.7254-5.2476 7.1608-5.2129 11.258 0.03035 3.5789 1.3422 7.9615 3.2994 10.591-1.1469-0.67716-34.131-34.519-34.131-34.519-0.61892-0.81249-2.4282-3.5186-2.5371-10.301-0.063031-3.9244 0.8891-6.7036 1.9082-8.5469 0.91683-1.6582 2.6253-3.3294 4.3125-3.252z" color="#000000" color-rendering="auto" fill="#00112b" image-rendering="auto" shape-rendering="auto" solid-color="#000000" style="block-progression:tb;isolation:auto;mix-blend-mode:normal;text-decoration-color:#000000;text-decoration-line:none;text-decoration-style:solid;text-indent:0;text-transform:none;white-space:normal"/>
 </g>
</svg>
