<svg height="512" viewBox="0 0 34 60" width="512" xmlns="http://www.w3.org/2000/svg"><g id="Page-1" fill="none" fill-rule="evenodd"><g id="002---Skeleton" fill-rule="nonzero" transform="translate(-1)"><g id="Icons" transform="translate(1 1)"><path id="Shape" d="m26.96 42.56c.0551282.8963319-.1874441 1.7857638-.69 2.53-.2226982.3310035-.4999703.621801-.82.86-1.8355191 1.2120116-3.971528 1.8905493-6.17 1.96-.7.06-1.45.09-2.28.09s-1.58-.03-2.28-.09c-2.198472-.0694507-4.3344809-.7479884-6.17-1.96-.32002971-.238199-.59730176-.5289965-.82-.86-.50255585-.7442362-.74512818-1.6336681-.69-2.53.03-.61.08-1.2.15-1.76.30154652-3.2970685 1.44472215-6.4614612 3.32-9.19.456239.2525536.9685347.3866444 1.49.39h10c.5214653-.0033556 1.033761-.1374464 1.49-.39 1.8752778 2.7285388 3.0184535 5.8929315 3.32 9.19.07.56.12 1.15.15 1.76z" fill="#f5f5f5"/><path id="Shape" d="m26.81 40.8c-.3015465-3.2970685-1.4447222-6.4614612-3.32-9.19-.456239.2525536-.9685347.3866444-1.49.39h-1.248c1.7138867 2.6438981 2.763034 5.663027 3.058 8.8.07.56.12 1.15.15 1.76.0551282.8963319-.1874441 1.7857638-.69 2.53-.2226982.3310035-.4999703.621801-.82.86-1.8355191 1.2120116-3.971528 1.8905493-6.17 1.96-.25.021-.516.034-.78.048.475.025.967.042 1.5.042.83 0 1.58-.03 2.28-.09 2.198472-.0694507 4.3344809-.7479884 6.17-1.96.3200297-.238199.5973018-.5289965.82-.86.5025559-.7442362.7451282-1.6336681.69-2.53-.03-.61-.08-1.2-.15-1.76z" fill="#cfd8dc"/><path id="Shape" d="m10.51 31.61c-1.87527785 2.7285388-3.01845348 5.8929315-3.32 9.19-3.14 2-4.74 1.17-5.56-.1-.81524715-1.3746185-.84564952-3.0771512-.08-4.48 1.44446147-3.1929308 4.16129708-5.6340928 7.49-6.73.14833224.8909299.68763785 1.668704 1.47 2.12z" fill="#9e9e9e"/><path id="Shape" d="m32.37 40.7c-.82 1.27-2.42 2.1-5.56.1-.3015465-3.2970685-1.4447222-6.4614612-3.32-9.19.7823621-.451296 1.3216678-1.2290701 1.47-2.12 3.3287029 1.0959072 6.0455385 3.5370692 7.49 6.73.7656495 1.4028488.7352472 3.1053815-.08 4.48z" fill="#9e9e9e"/><path id="Shape" d="m32.45 36.22c-1.4444615-3.1929308-4.1612971-5.6340928-7.49-6.73-.0701926.4131241-.2269552.8067348-.46 1.155 2.1528269 1.3424191 3.8717968 3.2784307 4.95 5.575.7656495 1.4028488.7352472 3.1053815-.08 4.48-.2389498.3833144-.5634274.7060806-.948.943 2.1.829 3.282.088 3.948-.943.8152472-1.3746185.8456495-3.0771512.08-4.48z" fill="#707070"/><path id="Shape" d="m14.72 47.91c-.11 4.21-.86 6.76-1.61 8.26-.5293631 1.1074347-1.6426146 1.817278-2.87 1.83-.0967744.0016633-.1935701-.0016745-.29-.01-1.58846129-.2061559-2.80137668-1.5201475-2.88-3.12-.13579453-3.2742944.08551093-6.5536388.66-9.78.22269824.3310035.49997029.621801.82.86 1.8355191 1.2120116 3.971528 1.8905493 6.17 1.96z" fill="#9e9e9e"/><path id="Shape" d="m26.93 54.87c-.0786233 1.5998525-1.2915387 2.9138441-2.88 3.12-.0964299.0083255-.1932256.0116633-.29.01-1.2273854-.012722-2.3406369-.7225653-2.87-1.83-.75-1.5-1.5-4.05-1.61-8.26 2.198472-.0694507 4.3344809-.7479884 6.17-1.96.3200297-.238199.5973018-.5289965.82-.86.5744891 3.2263612.7957945 6.5057056.66 9.78z" fill="#9e9e9e"/><path id="Shape" d="m26.27 45.09c-.2226982.3310035-.4999703.621801-.82.86-.5854686.4240497-1.2243112.7690248-1.9 1.026.3870128 2.6123308.5143009 5.2565743.38 7.894-.0731908 1.1334397-.7046311 2.1564853-1.685 2.73.4625502.2605336.9841258.3982433 1.515.4.0967744.0016633.1935701-.0016745.29-.01 1.5884613-.2061559 2.8013767-1.5201475 2.88-3.12.1357945-3.2742944-.0855109-6.5536388-.66-9.78z" fill="#707070"/><path id="Shape" d="m31 12.5c-.0495949 3.7226459-1.8317874 7.2093835-4.82 9.43-.7402277.563729-1.1762967 1.4395626-1.18 2.37v4.7c.0020013.1642242-.0113905.3282746-.04.49-.1483322.8909299-.6876379 1.668704-1.47 2.12-.456239.2525536-.9685347.3866444-1.49.39h-10c-.5214653-.0033556-1.033761-.1374464-1.49-.39-.78236215-.451296-1.32166776-1.2290701-1.47-2.12-.02860947-.1617254-.04200134-.3257758-.04-.49v-4.7c-.00370328-.9304374-.43977231-1.806271-1.18-2.37-2.98821259-2.2206165-4.77040512-5.7073541-4.82-9.43 0-6.9 6.27-12.5 14-12.5s14 5.6 14 12.5z" fill="#f5f5f5"/><path id="Shape" d="m17 0c-.507 0-1.007.027-1.5.074 7.025.669 12.5 5.979 12.5 12.426-.0495949 3.7226459-1.8317874 7.2093835-4.82 9.43-.7402277.563729-1.1762967 1.4395626-1.18 2.37v4.7c.0020013.1642242-.0113905.3282746-.04.49-.1483322.8909299-.6876379 1.668704-1.47 2.12-.456239.2525536-.9685347.3866444-1.49.39h3c.5214653-.0033556 1.033761-.1374464 1.49-.39.7823621-.451296 1.3216678-1.2290701 1.47-2.12.0286095-.1617254.0420013-.3257758.04-.49v-4.7c.0037033-.9304374.4397723-1.806271 1.18-2.37 2.9882126-2.2206165 4.7704051-5.7073541 4.82-9.43 0-6.9-6.27-12.5-14-12.5z" fill="#cfd8dc"/><g fill="#607d8b"><path id="Shape" d="m15 14c0 3-3.34 3-5 3-2 0-3-2.34-3-4 0-1.24.75-1.74 1.81-1.92h.01c1.4143329.6430886 2.9569599.9543504 4.51.91h.01c.94.54 1.66 1.24 1.66 2.01z"/><path id="Shape" d="m27 13c0 1.66-1 4-3 4-1.66 0-5 0-5-3 0-.77.72-1.47 1.66-2.01h.01c1.5530401.0443504 3.0956671-.2669114 4.51-.91h.01c1.06.18 1.81.68 1.81 1.92z"/></g></g><g id="Layer_2" fill="#000"><path id="Shape" d="m4.9 44.005c.73827114-.0170101 1.46615955-.1776686 2.143-.473-.0504069.9623671.17288256 1.9193219.644 2.76-.55113889 3.1872383-.75666242 6.424653-.613 9.656.12067313 2.0815431 1.71087807 3.7798652 3.78 4.037.1283013.0119685.2571568.0169758.386.015 1.6058385-.0101947 3.0653021-.9351686 3.76-2.383 1.0613691-2.4127681 1.6295094-5.0134293 1.671-7.649.43.019.87.032 1.325.032s.895-.013 1.325-.032c.0410435 2.6344459.6085032 5.2340845 1.669 7.646.6954166 1.4522325 2.1598647 2.3790689 3.77 2.386.1311725.0018997.262354-.0031072.393-.015 2.0664104-.2597282 3.6533425-1.9568289 3.774-4.036.1436624-3.231347-.0618611-6.4687617-.613-9.656.4716498-.840867.6952936-1.7982012.645-2.761.6761488.2952977 1.4033771.4559605 2.141.473 1.2752473.0027203 2.4573686-.6674018 3.11-1.763 1.0146839-1.6675621 1.0668549-3.748691.137-5.465-1.470706-3.1767348-4.0985733-5.6722609-7.347-6.977v-4.5c.0027978-.6228337.2956015-1.2088109.792-1.585 3.2291439-2.4106139 5.1538132-6.1856709 5.208-10.215 0-7.444-6.729-13.5-15-13.5s-15 6.056-15 13.5c.05294943 4.0307422 1.97774951 7.8075341 5.208 10.219.49528621.3753354.78796045.9595752.792 1.581v4.5c-3.24806438 1.3045579-5.87535738 3.800218-7.345 6.977-.93156246 1.7174533-.88015045 3.8005918.135 5.47.65402073 1.0935296 1.83581895 1.7615686 3.11 1.758zm8.315 12.721c-.360556.7673891-1.127214 1.261932-1.975 1.274-.067 0-.126 0-.186 0-1.10478816-.1608643-1.93908103-1.0845907-1.987-2.2-.12929034-2.5785372-.00233474-5.1635408.379-7.717 1.5995184.9428229 3.3846018 1.527274 5.232 1.713-.0184008 2.3847955-.5162737 4.7415296-1.464 6.93zm-3.064-10.575c-.59575912-.465881-.9820804-1.1493171-1.074-1.9 2.0942358 1.2298605 4.4959227 1.8366133 6.923 1.749.5522847 0 1-.4477153 1-1s-.4477153-1-1-1c-4.018 0-6.022-1.408-6.8-2.16.0906413-.7548382.22014659-1.5045003.388-2.246 1.9873265.9941063 4.1910484 1.4773304 6.412 1.406.5522847 0 1-.4477153 1-1s-.4477153-1-1-1c-2.0516534.101869-4.0897773-.3838116-5.875-1.4.4344429-1.326117 1.0305994-2.5936633 1.775-3.774.3566123.1096448.7269571.1682267 1.1.174h10c.3730359-.0058538.7433695-.0644338 1.1-.174.7445882 1.1802339 1.3407559 2.447804 1.775 3.774-1.7850993 1.0165013-3.8233157 1.5022039-5.875 1.4-.5522847 0-1 .4477153-1 1s.4477153 1 1 1c2.2220568.0733072 4.4273982-.4078332 6.417-1.4.1674562.7412424.2969581 1.4905511.388 2.245-.783.747-2.787 2.155-6.805 2.155-.5522847 0-1 .4477153-1 1s.4477153 1 1 1c2.4272373.086675 4.8288455-.5207519 6.923-1.751-.0897011.7502219-.4743483 1.4338792-1.069 1.9-1.139.844-3.425 1.851-7.854 1.851s-6.715-1.007-7.849-1.849zm3.849-17.151c.5522847 0 1-.4477153 1-1h2c0 .5522847.4477153 1 1 1s1-.4477153 1-1h2c0 .5522847.4477153 1 1 1s1-.4477153 1-1h2v2c0 1.1045695-.8954305 2-2 2h-10c-1.1045695 0-2-.8954305-2-2v-2h2c0 .5522847.4477153 1 1 1zm12.933 26.792c-.0428766 1.1168482-.8753252 2.0446859-1.981 2.208-.0435382.0041242-.0872741.0057935-.131.005-.8644396-.0101811-1.6505044-.5032089-2.036-1.277-.9483004-2.1900062-1.4458578-4.5485577-1.463-6.935 1.8475349-.185751 3.6326822-.7705642 5.232-1.714.3810046 2.5521487.5079592 5.1357928.379 7.713zm5.623-18.125c.6102581 1.0861367.600368 2.4140734-.026 3.491-.3.456-1.062 1.628-3.8.028-.35443-2.9641948-1.341718-5.8176106-2.895-8.367.2978014-.3060236.5446014-.6578234.731-1.042 2.6582724 1.1521714 4.793243 3.2514997 5.99 5.89zm-27.556-24.167c0-6.341 5.832-11.5 13-11.5s13 5.159 13 11.5c-.0550713 3.4125062-1.6941499 6.605291-4.435 8.639-.9843558.7533665-1.5626643 1.9214388-1.565 3.161v.7h-2c0-.5522847-.4477153-1-1-1s-1 .4477153-1 1h-2c0-.5522847-.4477153-1-1-1s-1 .4477153-1 1h-2c0-.5522847-.4477153-1-1-1s-1 .4477153-1 1h-2v-.7c-.001093-1.2409677-.57953-2.4107779-1.565-3.165-2.73974557-2.0328576-4.37869294-5.2239085-4.435-8.635zm-1.554 24.164c1.19640159-2.6376945 3.33114493-4.7360806 5.989-5.887.18639861.3841766.4331986.7359764.731 1.042-1.55407683 2.549015-2.54142629 5.4026084-2.895 8.367-2.74 1.6-3.507.428-3.8-.027-.62717573-1.0782311-.636687-2.4079072-.025-3.495z"/><path id="Shape" d="m17 15c-.0076112-.4870997-.1593253-.9610323-.436-1.362.3801237-.2707237.5224551-.7683752.3429647-1.199152-.1794903-.4307767-.6330738-.6801304-1.0929647-.600848-2.5084261.506467-5.1139536-.0750428-7.169-1.6-.42166941-.35705207-1.05294789-.30466938-1.40999997.117-.35705209.4216694-.30466941 1.0529479.11699997 1.41.025.021.153.126.366.277-.47698658.5391865-.73334316 1.2382759-.718 1.958 0 2.405 1.529 5 4 5 1.641 0 6 0 6-4zm-8-1c0-.41.056-.7.7-.873 1.3729329.5763337 2.8470052.87312 4.336.873h.018c.635.4.946.79.946 1 0 1.458-1.084 2-4 2-1.288 0-2-1.774-2-3z"/><path id="Shape" d="m25 19c2.471 0 4-2.595 4-5 .0161027-.720752-.2403034-1.4210475-.718-1.961.213-.151.341-.256.366-.277.4216694-.3570521.4740521-.9883306.117-1.41-.3570521-.42166941-.9883306-.47405209-1.41-.117-2.0557957 1.5233182-4.6605926 2.104665-7.169 1.6-.4598909-.0792824-.9134744.1700713-1.0929647.600848-.1794904.4307768-.037159.9284283.3429647 1.199152-.2772392.4018141-.42898.8768741-.436 1.365 0 4 4.359 4 6 4zm2-5c0 1.226-.712 3-2 3-2.916 0-4-.542-4-2 0-.209.311-.6.946-1h.018c1.4880526-.0005954 2.9610687-.2977142 4.333-.874.647.174.703.464.703.874z"/><path id="Shape" d="m16 21c0 .5522847.4477153 1 1 1h2c.5522847 0 1-.4477153 1-1s-.4477153-1-1-1h-2c-.5522847 0-1 .4477153-1 1z"/></g></g></g></svg>