<?xml version="1.0"?>
<svg xmlns="http://www.w3.org/2000/svg" viewBox="0 0 64 64" width="512" height="512"><g id="Filled_outline" data-name="Filled outline"><polygon points="25 61 6 61 3 42 14 43 14 51 25 51 25 61" style="fill:#143441"/><polygon points="39 61 58 61 61 42 50 43 50 51 39 51 39 61" style="fill:#143441"/><rect x="14" y="51" width="36" height="10" style="fill:#143441"/><rect x="14" y="11" width="36" height="40" style="fill:#cfdfe8"/><rect x="14" y="3" width="36" height="8" style="fill:#143441"/><path d="M40,32a6,6,0,0,0,6-6H34A6,6,0,0,0,40,32Z" style="fill:#fff"/><path d="M37.888,26a2.227,2.227,0,0,0-.138.75,2.25,2.25,0,0,0,4.5,0,2.227,2.227,0,0,0-.138-.75Z" style="fill:#e4544f"/><path d="M40,20h0a6,6,0,0,1,6,6v0a0,0,0,0,1,0,0H34a0,0,0,0,1,0,0v0a6,6,0,0,1,6-6Z" style="fill:#394d5c"/><path d="M24,32a6,6,0,0,0,6-6H18A6,6,0,0,0,24,32Z" style="fill:#fff"/><path d="M21.888,26a2.227,2.227,0,0,0-.138.75,2.25,2.25,0,0,0,4.5,0,2.227,2.227,0,0,0-.138-.75Z" style="fill:#e4544f"/><path d="M24,20h0a6,6,0,0,1,6,6v0a0,0,0,0,1,0,0H18a0,0,0,0,1,0,0v0A6,6,0,0,1,24,20Z" style="fill:#394d5c"/><path d="M32,40a1,1,0,0,1-.707-.293l-2-2A1,1,0,0,1,29,37V33h2v3.586l1,1,1-1V33h2v4a1,1,0,0,1-.293.707l-2,2A1,1,0,0,1,32,40Z" style="fill:#394d5c"/><polygon points="26 47 24 43 28 43 26 47" style="fill:#e4544f"/><polygon points="38 47 36 43 40 43 38 47" style="fill:#e4544f"/><polygon points="20 51 14 51 14 35 20 37 20 51" style="fill:#5a6470"/><polygon points="44 51 50 51 50 35 44 37 44 51" style="fill:#5a6470"/><rect x="23.5" y="9.424" width="2" height="13.153" transform="translate(4.961 37.782) rotate(-81.254)" style="fill:#394d5c"/><rect x="32.924" y="15" width="13.153" height="2" transform="translate(-1.977 6.205) rotate(-8.763)" style="fill:#394d5c"/><path d="M14,29H10a2,2,0,0,1-2-2L7,17l7,2Z" style="fill:#aec0d1"/><path d="M50,29h4a2,2,0,0,0,2-2l1-10-7,2Z" style="fill:#aec0d1"/><rect x="25" y="51" width="14" height="10" style="fill:#e4544f"/><rect x="11" y="23" width="3" height="2" style="fill:#5a6470"/><rect x="50" y="23" width="3" height="2" style="fill:#5a6470"/><rect x="4" y="46" width="3" height="2" style="fill:#fff"/><rect x="9" y="46" width="2" height="2" style="fill:#fff"/><rect x="57" y="46" width="3" height="2" style="fill:#fff"/><rect x="53" y="46" width="2" height="2" style="fill:#fff"/><path d="M50,51h8a0,0,0,0,1,0,0V61a0,0,0,0,1,0,0H56a6,6,0,0,1-6-6V51A0,0,0,0,1,50,51Z" transform="translate(108 112) rotate(-180)" style="fill:#5a6470"/><path d="M12,51h2a0,0,0,0,1,0,0V61a0,0,0,0,1,0,0H6a0,0,0,0,1,0,0V57A6,6,0,0,1,12,51Z" style="fill:#5a6470"/><rect x="24" y="42" width="16" height="2" style="fill:#143441"/><path d="M40,19a7,7,0,1,0,7,7A7.008,7.008,0,0,0,40,19Zm0,2a5.008,5.008,0,0,1,4.9,4H35.1A5.008,5.008,0,0,1,40,21Zm1.225,6a1.25,1.25,0,0,1-2.45,0ZM40,31a5.008,5.008,0,0,1-4.9-4h1.674a3.233,3.233,0,0,0,6.45,0H44.9A5.008,5.008,0,0,1,40,31Z"/><path d="M24,33a7,7,0,1,0-7-7A7.008,7.008,0,0,0,24,33Zm0-2a5.008,5.008,0,0,1-4.9-4h1.674a3.233,3.233,0,0,0,6.45,0H28.9A5.008,5.008,0,0,1,24,31Zm-1.225-4h2.45a1.25,1.25,0,0,1-2.45,0ZM24,21a5.008,5.008,0,0,1,4.9,4H19.1A5.008,5.008,0,0,1,24,21Z"/><path d="M31,33H29v4a1,1,0,0,0,.293.707l2,2a1,1,0,0,0,1.414,0l2-2A1,1,0,0,0,35,37V33H33v3.586l-1,1-1-1Z"/><path d="M40,42H24a1,1,0,0,0-.895,1.447l2,4a1,1,0,0,0,1.79,0L28.618,44h6.764L37.1,47.447a1,1,0,0,0,1.79,0l2-4A1,1,0,0,0,40,42ZM26,44.764,25.618,44h.764Zm12,0L37.618,44h.764Z"/><rect x="23.5" y="9.424" width="2" height="13.153" transform="translate(4.961 37.782) rotate(-81.254)"/><rect x="32.924" y="15" width="13.153" height="2" transform="translate(-1.977 6.205) rotate(-8.763)"/><rect x="9" y="46" width="2" height="2"/><path d="M61.73,41.316A1.012,1.012,0,0,0,60.909,41l-9.909.9V30h3A2.977,2.977,0,0,0,57,27.1l1-10a1,1,0,0,0-1.269-1.061L51,17.674V2H13V17.674L7.274,16.039A1,1,0,0,0,6.005,17.1L7,27a3,3,0,0,0,3,3h3V41.905L3.091,41a1.015,1.015,0,0,0-.821.312,1,1,0,0,0-.257.84l3,19A1,1,0,0,0,6,62H58a1,1,0,0,0,.987-.844l3-19A1,1,0,0,0,61.73,41.316Zm-1.918,1.8L59.356,46H57v2h2.041l-.894,5.656A7,7,0,0,0,52,50H51V43.913ZM49,50H45V37.721l4-1.334Zm2,2h1a5.006,5.006,0,0,1,5,5v3H51Zm4.859-33.634L55,27a1,1,0,0,1-1,1H51V25h2V23H51V19.754ZM15,4H49v6H15Zm34,8V34.279l-5.316,1.772A1,1,0,0,0,43,37V50H21V37a1,1,0,0,0-.684-.949L15,34.279V12ZM13,60H7V57a5.006,5.006,0,0,1,5-5h1Zm2-23.613,4,1.334V50H15ZM10,28a1.034,1.034,0,0,1-1.005-1.1l-.853-8.534L13,19.754V23H11v2h2v3Zm3,15.913V50H12a7,7,0,0,0-6.147,3.656L4.959,48H7V46H4.644l-.457-2.888ZM15,52h9v8H15Zm11,0H38v8H26Zm14,8V52h9v8Z"/><rect x="53" y="46" width="2" height="2"/></g></svg>
