<svg height="512pt" viewBox="0 0 512 512" width="512pt" xmlns="http://www.w3.org/2000/svg"><path d="m431.714844 80.285156c-44.96875-44.972656-107.09375-72.785156-175.714844-72.785156s-130.746094 27.8125-175.714844 72.785156c-44.972656 44.96875-72.785156 107.09375-72.785156 175.714844s27.8125 130.746094 72.785156 175.714844c44.96875 44.972656 107.09375 72.785156 175.714844 72.785156s130.746094-27.8125 175.714844-72.785156c44.972656-44.96875 72.785156-107.09375 72.785156-175.714844s-27.8125-130.746094-72.785156-175.714844zm0 0" fill="#6697cc"/><path d="m431.714844 80.285156c-11.5 11.5-12.542969 29.785156-2.457032 42.542969 28.066407 35.496094 45.242188 82.429687 45.242188 133.171875 0 58.363281-22.730469 113.234375-63.996094 154.503906-41.269531 41.269532-96.140625 63.996094-154.503906 63.996094-51.246094 0-98.429688-17.628906-133.09375-45.183594-12.757812-10.148437-31.09375-9.128906-42.621094 2.398438 44.96875 44.972656 107.09375 72.785156 175.714844 72.785156s130.746094-27.8125 175.714844-72.785156c44.972656-44.96875 72.785156-107.09375 72.785156-175.714844s-27.8125-130.746094-72.785156-175.714844zm0 0" fill="#336499"/><path d="m256 444.5c-103.9375 0-188.5-84.5625-188.5-188.5s84.5625-188.5 188.5-188.5 188.5 84.5625 188.5 188.5-84.5625 188.5-188.5 188.5zm0 0" fill="#fff9eb"/><path d="m444.5 256c0-54.398438-23.171875-103.476562-60.148438-137.914062-9.269531 13.726562-9.191406 32.148437.917969 46.324218 19.203125 26.9375 29.3125 58.75 29.230469 91.992188-.21875 86.957031-71.140625 157.878906-158.089844 158.097656h-.410156c-33.296875 0-65.039062-10.15625-91.796875-29.378906-6.957031-5-15.140625-7.640625-23.667969-7.640625-8.128906 0-15.886718 2.402343-22.460937 6.859375 34.441406 36.984375 83.523437 60.160156 137.925781 60.160156 103.9375 0 188.5-84.5625 188.5-188.5zm0 0" fill="#d3cdbf"/><path d="m276 256c0 11.046875-8.953125 20-20 20s-20-8.953125-20-20 8.953125-20 20-20 20 8.953125 20 20zm0 0" fill="#3f70a5"/><path d="m248.5 229.546875c-11.527344 3.273437-20 13.890625-20 26.453125 0 15.164062 12.335938 27.5 27.5 27.5 12.5625 0 23.179688-8.472656 26.453125-20h73.753906c4.144531 0 7.5-3.359375 7.5-7.5s-3.355469-7.5-7.5-7.5h-73.753906c-2.597656-9.140625-9.8125-16.355469-18.953125-18.953125v-38.296875c0-4.140625-3.355469-7.5-7.5-7.5s-7.5 3.359375-7.5 7.5zm7.5 13.953125c6.894531 0 12.5 5.605469 12.5 12.5s-5.605469 12.5-12.5 12.5-12.5-5.605469-12.5-12.5 5.605469-12.5 12.5-12.5zm0 0"/><path d="m437.019531 74.980469c-48.351562-48.351563-112.640625-74.980469-181.019531-74.980469s-132.667969 26.628906-181.019531 74.980469c-48.351563 48.351562-74.980469 112.640625-74.980469 181.019531 0 141.488281 114.496094 256 256 256 62.628906 0 122.914062-22.871094 169.753906-64.398438 3.101563-2.746093 3.382813-7.488281.636719-10.585937-2.746094-3.101563-7.488281-3.382813-10.585937-.636719-44.09375 39.09375-100.84375 60.621094-159.804688 60.621094-133.199219 0-241-107.789062-241-241 0-64.375 25.066406-124.894531 70.589844-170.414062 45.515625-45.519532 106.039062-70.585938 170.410156-70.585938s124.894531 25.066406 170.410156 70.585938c45.523438 45.519531 70.589844 106.039062 70.589844 170.414062 0 58.960938-21.527344 115.710938-60.621094 159.804688-2.746094 3.097656-2.464844 7.835937.636719 10.585937s7.839844 2.460937 10.589844-.636719c41.523437-46.839844 64.394531-107.125 64.394531-169.753906 0-68.378906-26.628906-132.667969-74.980469-181.019531zm0 0"/><path d="m256 135.5c4.144531 0 7.5-3.359375 7.5-7.5v-29c0-4.140625-3.355469-7.5-7.5-7.5s-7.5 3.359375-7.5 7.5v29c0 4.140625 3.355469 7.5 7.5 7.5zm0 0"/><path d="m248.5 384v29c0 4.140625 3.355469 7.5 7.5 7.5s7.5-3.359375 7.5-7.5v-29c0-4.140625-3.355469-7.5-7.5-7.5s-7.5 3.359375-7.5 7.5zm0 0"/><path d="m376.5 256c0 4.140625 3.355469 7.5 7.5 7.5h29c4.144531 0 7.5-3.359375 7.5-7.5s-3.355469-7.5-7.5-7.5h-29c-4.144531 0-7.5 3.359375-7.5 7.5zm0 0"/><path d="m135.5 256c0-4.140625-3.355469-7.5-7.5-7.5h-29c-4.144531 0-7.5 3.359375-7.5 7.5s3.355469 7.5 7.5 7.5h29c4.144531 0 7.5-3.359375 7.5-7.5zm0 0"/><path d="m180.503906 140.238281c2.074219 3.589844 6.664063 4.816407 10.246094 2.746094 3.585938-2.074219 4.816406-6.660156 2.746094-10.246094l-9.5-16.453125c-2.070313-3.589844-6.660156-4.816406-10.246094-2.746094-3.585938 2.070313-4.816406 6.65625-2.746094 10.246094zm0 0"/><path d="m321.25 369.015625c-3.585938 2.074219-4.816406 6.660156-2.746094 10.246094l9.5 16.453125c2.074219 3.59375 6.664063 4.816406 10.246094 2.746094 3.585938-2.070313 4.816406-6.65625 2.746094-10.246094l-9.5-16.453125c-2.070313-3.585938-6.660156-4.816407-10.246094-2.746094zm0 0"/><path d="m388.214844 171.003906-16.453125 9.5c-3.585938 2.070313-4.816407 6.660156-2.746094 10.246094 2.074219 3.59375 6.664063 4.816406 10.246094 2.746094l16.453125-9.5c3.589844-2.070313 4.816406-6.660156 2.746094-10.246094-2.070313-3.585938-6.660157-4.816406-10.246094-2.746094zm0 0"/><path d="m123.785156 340.996094 16.453125-9.5c3.585938-2.070313 4.816407-6.660156 2.746094-10.246094-2.074219-3.585938-6.660156-4.816406-10.246094-2.746094l-16.453125 9.5c-3.589844 2.070313-4.816406 6.660156-2.746094 10.246094 2.074219 3.59375 6.664063 4.816406 10.246094 2.746094zm0 0"/><path d="m140.238281 180.503906-16.453125-9.5c-3.585937-2.070312-8.175781-.84375-10.246094 2.746094-2.070312 3.585938-.84375 8.175781 2.746094 10.246094l16.453125 9.5c3.582031 2.070312 8.171875.84375 10.246094-2.746094 2.070313-3.585938.839844-8.175781-2.746094-10.246094zm0 0"/><path d="m371.761719 331.496094 16.453125 9.5c3.585937 2.070312 8.175781.84375 10.246094-2.746094 2.070312-3.585938.84375-8.175781-2.746094-10.246094l-16.453125-9.5c-3.585938-2.070312-8.175781-.84375-10.246094 2.746094-2.070313 3.585938-.839844 8.175781 2.746094 10.246094zm0 0"/><path d="m331.496094 140.238281 9.5-16.453125c2.070312-3.589844.839844-8.175781-2.746094-10.246094-3.585938-2.070312-8.175781-.84375-10.246094 2.746094l-9.5 16.453125c-2.070312 3.585938-.839844 8.171875 2.746094 10.246094 3.582031 2.070313 8.171875.84375 10.246094-2.746094zm0 0"/><path d="m173.75 398.460938c3.582031 2.070312 8.171875.84375 10.246094-2.746094l9.5-16.453125c2.070312-3.585938.839844-8.171875-2.746094-10.246094-3.585938-2.070313-8.175781-.839844-10.246094 2.746094l-9.5 16.453125c-2.070312 3.589844-.839844 8.175781 2.746094 10.246094zm0 0"/><path d="m117.851562 127.675781c-3.144531-2.699219-7.878906-2.335937-10.574218.804688-30.488282 35.507812-47.277344 80.792969-47.277344 127.519531 0 108.074219 87.925781 196 196 196s196-87.925781 196-196-87.925781-196-196-196c-46.726562 0-92.011719 16.789062-127.519531 47.273438-3.144531 2.699218-3.503907 7.4375-.804688 10.578124 2.695313 3.140626 7.429688 3.503907 10.574219.804688 32.789062-28.152344 74.605469-43.65625 117.75-43.65625 99.804688 0 181 81.195312 181 181s-81.195312 181-181 181-181-81.195312-181-181c0-43.140625 15.503906-84.960938 43.65625-117.746094 2.699219-3.144531 2.335938-7.878906-.804688-10.578125zm0 0"/></svg>