<?xml version="1.0" encoding="UTF-8"?>
<svg version="1.1" viewBox="0 0 1000 1000" xmlns="http://www.w3.org/2000/svg">
 <g transform="translate(0 -52.362)">
  <circle cx="500" cy="552.36" r="443.92" fill="#409fe2"/>
  <path d="m538.38 348.53a26.793 26.793 0 0 0 -25.986 21.766l-75.104 365.45a26.793 26.793 0 1 0 52.486 10.787l75.104-365.45a26.793 26.793 0 0 0 -26.498 -32.553l-2e-3 -2e-3zm140.39 42.291v4e-3a26.793 26.793 0 0 0 -18.664 46.004l120.7 120.7-120.7 120.7a26.793 26.793 0 1 0 37.887 37.887l139.65-139.65a26.793 26.793 0 0 0 0 -37.887l-139.65-139.65a26.793 26.793 0 0 0 -19.223 -8.1191zm-346.34 4e-3a26.793 26.793 0 0 0 -18.416 8.1035l-139.65 139.65a26.793 26.793 0 0 0 0 37.887l139.65 139.65a26.793 26.793 0 1 0 37.887 -37.889l-120.7-120.7 120.7-120.7a26.793 26.793 0 0 0 -19.469 -45.99l-2e-3 -4e-3z" color="#000000" color-rendering="auto" fill-opacity=".13333" fill-rule="evenodd" image-rendering="auto" shape-rendering="auto" solid-color="#000000" style="block-progression:tb;isolation:auto;mix-blend-mode:normal;text-decoration-color:#000000;text-decoration-line:none;text-decoration-style:solid;text-indent:0;text-transform:none;white-space:normal"/>
  <path d="m532.38 342.53a26.793 26.793 0 0 0 -25.986 21.766l-75.104 365.45a26.793 26.793 0 1 0 52.486 10.787l75.104-365.45a26.793 26.793 0 0 0 -26.498 -32.553l-2e-3 -2e-3zm140.39 42.291v4e-3a26.793 26.793 0 0 0 -18.664 46.004l120.7 120.7-120.7 120.7a26.793 26.793 0 1 0 37.887 37.887l139.65-139.65a26.793 26.793 0 0 0 0 -37.887l-139.65-139.65a26.793 26.793 0 0 0 -19.223 -8.1191zm-346.34 4e-3a26.793 26.793 0 0 0 -18.416 8.1035l-139.65 139.65a26.793 26.793 0 0 0 0 37.887l139.65 139.65a26.793 26.793 0 1 0 37.887 -37.889l-120.7-120.7 120.7-120.7a26.793 26.793 0 0 0 -19.469 -45.99l-2e-3 -4e-3z" color="#000000" color-rendering="auto" fill="#e4ff1e" fill-rule="evenodd" image-rendering="auto" shape-rendering="auto" solid-color="#000000" style="block-progression:tb;isolation:auto;mix-blend-mode:normal;text-decoration-color:#000000;text-decoration-line:none;text-decoration-style:solid;text-indent:0;text-transform:none;white-space:normal"/>
 </g>
</svg>
