<?xml version="1.0" encoding="UTF-8"?>
<svg version="1.1" viewBox="0 0 360.72 364.92" xmlns="http://www.w3.org/2000/svg" xmlns:xlink="http://www.w3.org/1999/xlink">
 <defs>
  <linearGradient id="m" x1="662.06" x2="527.4" y1="765.65" y2="644.41" gradientUnits="userSpaceOnUse">
   <stop offset="0"/>
   <stop stop-color="#ccc" offset="1"/>
  </linearGradient>
  <radialGradient id="n" cx="440.25" cy="288.28" r="179.36" gradientTransform="matrix(0 .87572 -1.2398 0 696.54 -205.24)" gradientUnits="userSpaceOnUse">
   <stop stop-color="#fff" offset="0"/>
   <stop stop-color="#fff" stop-opacity="0" offset="1"/>
  </radialGradient>
  <radialGradient id="a" cx="370.89" cy="499.55" r="179.36" gradientTransform="matrix(.76072 .94655 -.92987 .74732 546.58 -241.21)" gradientUnits="userSpaceOnUse">
   <stop stop-color="#916f6f" offset="0"/>
   <stop stop-opacity="0" offset="1"/>
  </radialGradient>
  <clipPath id="d">
   <path transform="translate(-87.335 -174.71)" d="m603.96 550.89a179.36 179.36 0 1 1 -358.72 0 179.36 179.36 0 1 1 358.72 0z" fill="url(#a)" opacity=".81858"/>
  </clipPath>
  <clipPath id="i">
   <path transform="matrix(.99216 .37322 -.18996 .93644 -53.461 -196.2)" d="m603.96 550.89a179.36 179.36 0 1 1 -358.72 0 179.36 179.36 0 1 1 358.72 0z" fill="url(#a)" opacity=".81858"/>
  </clipPath>
  <clipPath id="j">
   <path transform="matrix(.93571 -.56611 .6268 .8247 -309.56 421.44)" d="m603.96 550.89a179.36 179.36 0 1 1 -358.72 0 179.36 179.36 0 1 1 358.72 0z" fill="url(#a)" opacity=".81858"/>
  </clipPath>
  <clipPath id="k">
   <path d="m603.96 550.89a179.36 179.36 0 1 1 -358.72 0 179.36 179.36 0 1 1 358.72 0z" fill="url(#a)" opacity=".81858"/>
  </clipPath>
  <clipPath id="l">
   <path d="m603.96 550.89a179.36 179.36 0 1 1 -358.72 0 179.36 179.36 0 1 1 358.72 0z" fill="url(#a)" opacity=".81858"/>
  </clipPath>
 </defs>
 <g transform="translate(-156.78 -193.62)">
  <path transform="translate(-87.335 -174.71)" d="m603.96 550.89c0 99.057-80.302 179.36-179.36 179.36-99.057 0-179.36-80.302-179.36-179.36 0-99.057 80.302-179.36 179.36-179.36 99.057 0 179.36 80.302 179.36 179.36z" clip-path="url(#l)"/>
  <path transform="translate(-87.335 -174.71)" d="m603.96 550.89c0 99.057-80.302 179.36-179.36 179.36-99.057 0-179.36-80.302-179.36-179.36 0-99.057 80.302-179.36 179.36-179.36 99.057 0 179.36 80.302 179.36 179.36z" clip-path="url(#k)" fill="url(#a)" opacity=".81858"/>
  <path transform="matrix(.73208 .50253 -.55641 .83062 373.78 -369.21)" d="m607.62 636.91c0 49.529-40.151 89.68-89.68 89.68s-89.68-40.151-89.68-89.68 40.151-89.68 89.68-89.68 89.68 40.151 89.68 89.68z" clip-path="url(#j)" fill="url(#m)"/>
  <g transform="matrix(1.0119 -.29953 -.017793 .99354 89.442 -24.358)" clip-path="url(#i)">
   <path d="m343.46 542.03c5.1302 3.2834 9.0933 7.5031 11.889 12.659 2.7959 5.156 4.1939 10.735 4.194 16.737-9e-5 6.5155-1.6289 12.544-4.8866 18.084-3.2578 5.5407-7.6313 9.709-13.121 12.505-5.4894 2.796-12.492 4.194-21.008 4.194-9.1319 0-16.391-1.3467-21.778-4.0401-5.3868-2.6934-9.6962-6.7719-12.928-12.236-3.2321-5.4637-4.8481-11.633-4.8481-18.507-1e-5 -5.9511 1.2954-11.376 3.8862-16.276 2.5908-4.8993 6.4769-9.2729 11.659-13.121-3.386-3.4372-5.9383-7.0925-7.6569-10.966-1.7186-3.8733-2.578-7.9646-2.578-12.274-1e-5 -5.8997 1.4236-11.274 4.2709-16.122s6.836-8.6187 11.966-11.312c5.1302-2.6933 11.056-4.04 17.776-4.0401 6.618 1.1e-4 12.441 1.3596 17.469 4.0786 5.0276 2.7191 8.9907 6.5797 11.889 11.582 2.8985 5.0021 4.3478 10.376 4.3479 16.122-8e-5 4.053-0.75679 7.8109-2.2701 11.274-1.5135 3.463-4.271 7.3492-8.2726 11.659zm-23.856-33.937c-3.5399 9e-5 -6.4513 1.1672-8.7343 3.5014-2.283 2.3344-3.4245 5.3227-3.4244 8.9651-3e-5 3.6426 1.2056 6.6951 3.6168 9.1575 2.4112 2.4626 5.3867 3.6939 8.9267 3.6938 3.6424 7e-5 6.6308-1.2055 8.9651-3.6168 2.3342-2.4111 3.5014-5.5406 3.5014-9.3884-5e-5 -3.6424-1.18-6.6051-3.5399-8.8882-2.36-2.2829-5.4638-3.4244-9.3114-3.4244zm0.84649 45.403c-5.1816 5e-5 -9.5423 1.5776-13.082 4.7327-3.5399 3.1552-5.3098 6.9131-5.3098 11.274-2e-5 4.566 1.6673 8.4265 5.002 11.582 3.3346 3.1551 7.721 4.7327 13.159 4.7327 5.4893 2e-5 9.8629-1.4749 13.121-4.4248 3.2577-2.9499 4.8865-6.7591 4.8866-11.428-6e-5 -4.6685-1.693-8.5803-5.079-11.735-3.386-3.1551-7.6185-4.7326-12.697-4.7327z"/>
  </g>
  <path d="m457.15 279.55c-3.7861 43.627-51.841 57.651-118.05 57.651-66.207 0-117.56-12.953-121.71-57.651-4.5608-49.149 53.671-86.934 119.88-86.934 66.207 0 124.15 37.758 119.88 86.934z" clip-path="url(#d)" fill="url(#n)"/>
 </g>
</svg>
